<?xml version="1.0" encoding="utf-8"?>
<!-- Generator: Adobe Illustrator 16.0.0, SVG Export Plug-In . SVG Version: 6.00 Build 0)  -->
<!DOCTYPE svg PUBLIC "-//W3C//DTD SVG 1.1//EN" "http://www.w3.org/Graphics/SVG/1.1/DTD/svg11.dtd">
<svg version="1.1" id="Ebene_1" xmlns="http://www.w3.org/2000/svg" xmlns:xlink="http://www.w3.org/1999/xlink" x="0px" y="0px"
	 width="487.466px" height="50px" viewBox="0 0 487.466 50" enable-background="new 0 0 487.466 50" xml:space="preserve">
<g>
	<path fill="#039BB4" d="M6.562,0l3.845,16.681l0.839,4.642l0.84-4.546L15.377,0h6.422l3.461,16.678l0.887,4.644l0.898-4.463
		L30.93,0h6.196l-8.195,29.128h-5.827l-3.518-17.034l-1.028-5.633l-1.028,5.633l-3.518,17.034H8.359L0.099,0H6.562z"/>
	<path fill="#039BB4" d="M62.342,5.157H46.929v6.186h14.149v5.06H46.929v7.489h16.125v5.236H40.979V0h21.363V5.157z"/>
	<path fill="#039BB4" d="M86.466,0.75c1.072,0.459,1.981,1.138,2.727,2.035c0.615,0.737,1.104,1.554,1.464,2.451
		c0.359,0.895,0.54,1.917,0.54,3.063c0,1.383-0.349,2.744-1.048,4.081c-0.698,1.338-1.851,2.283-3.458,2.835
		c1.344,0.54,2.296,1.309,2.856,2.304c0.56,0.995,0.841,2.512,0.841,4.555v1.957c0,1.331,0.052,2.232,0.159,2.706
		c0.161,0.754,0.536,1.304,1.124,1.66v0.731h-6.718c-0.185-0.644-0.317-1.164-0.396-1.56c-0.16-0.817-0.244-1.654-0.257-2.51
		L84.26,22.35c-0.026-1.858-0.348-3.095-0.963-3.714c-0.618-0.62-1.773-0.93-3.468-0.93h-5.946v11.422h-5.949V0h13.934
		C83.859,0.038,85.392,0.29,86.466,0.75z M73.883,5.058v7.827h6.552c1.301,0,2.275-0.159,2.926-0.475
		c1.151-0.553,1.729-1.647,1.729-3.28c0-1.765-0.558-2.952-1.671-3.559c-0.627-0.342-1.563-0.514-2.815-0.514H73.883z"/>
	<path fill="#039BB4" d="M96.927,0h6.382l11.563,20.311V0h5.672v29.128h-6.086L102.599,8.461v20.667h-5.672V0z"/>
	<path fill="#039BB4" d="M147.795,5.157h-15.414v6.186h14.149v5.06h-14.149v7.489h16.126v5.236h-22.075V0h21.363V5.157z"/>
	<path fill="#039BB4" d="M171.919,0.75c1.072,0.459,1.981,1.138,2.726,2.035c0.616,0.737,1.104,1.554,1.464,2.451
		c0.359,0.895,0.54,1.917,0.54,3.063c0,1.383-0.35,2.744-1.048,4.081c-0.699,1.338-1.851,2.283-3.459,2.835
		c1.344,0.54,2.296,1.309,2.856,2.304c0.56,0.995,0.841,2.512,0.841,4.555v1.957c0,1.331,0.051,2.232,0.159,2.706
		c0.161,0.754,0.536,1.304,1.124,1.66v0.731h-6.718c-0.185-0.644-0.315-1.164-0.396-1.56c-0.159-0.817-0.244-1.654-0.257-2.51
		l-0.039-2.708c-0.026-1.858-0.348-3.095-0.963-3.714c-0.618-0.62-1.772-0.93-3.468-0.93h-5.945v11.422h-5.949V0h13.933
		C169.312,0.038,170.845,0.29,171.919,0.75z M159.337,5.058v7.827h6.552c1.301,0,2.275-0.159,2.926-0.475
		c1.152-0.553,1.729-1.647,1.729-3.28c0-1.765-0.559-2.952-1.671-3.559c-0.626-0.342-1.564-0.514-2.816-0.514H159.337z"/>
	<path fill="#039BB4" d="M194.137,16.954c0.871-1.252,2.292-2.49,4.27-3.716l0.613-0.375c-0.845-0.95-1.496-1.921-1.958-2.91
		c-0.459-0.989-0.691-2.019-0.691-3.087c0-2.124,0.719-3.782,2.161-4.977c1.439-1.194,3.306-1.791,5.6-1.791
		c2.092,0,3.823,0.612,5.189,1.833c1.366,1.222,2.05,2.787,2.05,4.688c0,1.718-0.411,3.113-1.229,4.184s-2.022,2.062-3.608,2.973
		l4.187,5.077c0.479-0.686,0.851-1.429,1.109-2.233c0.26-0.805,0.397-1.653,0.41-2.55h5c-0.092,1.771-0.519,3.562-1.281,5.372
		c-0.421,1.019-1.104,2.141-2.05,3.371l5.287,6.315h-6.818l-2.026-2.466c-0.986,0.913-1.904,1.59-2.756,2.026
		c-1.518,0.779-3.27,1.172-5.254,1.172c-2.983,0-5.313-0.869-6.992-2.611c-1.679-1.736-2.516-3.667-2.516-5.788
		C192.834,19.708,193.269,18.206,194.137,16.954z M199.643,23.931c0.797,0.804,1.82,1.207,3.067,1.207
		c0.938,0,1.826-0.212,2.665-0.636c0.837-0.423,1.518-0.895,2.04-1.416l-5.449-6.637c-1.426,0.937-2.368,1.761-2.829,2.475
		c-0.461,0.712-0.689,1.496-0.689,2.354C198.447,22.241,198.844,23.125,199.643,23.931z M202.123,8.328
		c0.246,0.383,0.779,1.063,1.599,2.04c0.82-0.555,1.409-1.022,1.763-1.406c0.682-0.713,1.024-1.486,1.024-2.317
		c0-0.606-0.205-1.148-0.615-1.624c-0.409-0.475-1.032-0.714-1.864-0.714c-0.519,0-1.006,0.139-1.457,0.417
		c-0.682,0.41-1.024,1.057-1.024,1.941C201.549,7.192,201.739,7.748,202.123,8.328z"/>
	<path fill="#039BB4" d="M234.158,29.128V0h6.047v11.107h11.325V0h6.046v29.128h-6.046V16.125h-11.325v13.002H234.158z"/>
	<path fill="#039BB4" d="M271.756,0h6.887l10.306,29.128h-6.602l-1.92-5.987h-10.728l-1.975,5.987h-6.367L271.756,0z
		 M271.354,18.122h7.459l-3.679-11.463L271.354,18.122z"/>
	<path fill="#039BB4" d="M314.382,3.102c0.89,1.238,1.336,2.721,1.336,4.446c0,1.778-0.449,3.209-1.35,4.289
		c-0.503,0.606-1.243,1.159-2.223,1.66c1.489,0.54,2.608,1.397,3.367,2.569c0.755,1.173,1.135,2.596,1.135,4.27
		c0,1.726-0.434,3.274-1.298,4.644c-0.552,0.91-1.238,1.671-2.063,2.293c-0.93,0.709-2.028,1.197-3.291,1.46
		c-1.265,0.267-2.635,0.396-4.116,0.396h-13.125V0h14.077C310.383,0.051,312.9,1.086,314.382,3.102z M298.562,5.058v6.424h7.082
		c1.263,0,2.29-0.241,3.079-0.721c0.79-0.482,1.184-1.334,1.184-2.561c0-1.356-0.522-2.253-1.564-2.687
		c-0.899-0.304-2.049-0.455-3.442-0.455H298.562z M298.562,16.303v7.766h7.074c1.263,0,2.246-0.17,2.949-0.513
		c1.277-0.632,1.914-1.843,1.914-3.637c0-1.514-0.619-2.554-1.855-3.122c-0.69-0.316-1.66-0.481-2.912-0.494H298.562z"/>
	<path fill="#039BB4" d="M343.425,5.157h-15.414v6.186h14.149v5.06h-14.149v7.489h16.127v5.236h-22.075V0h21.362V5.157z"/>
	<path fill="#039BB4" d="M367.549,0.75c1.071,0.459,1.98,1.138,2.727,2.035c0.615,0.737,1.104,1.554,1.465,2.451
		c0.357,0.895,0.538,1.917,0.538,3.063c0,1.383-0.348,2.744-1.048,4.081c-0.698,1.338-1.851,2.283-3.459,2.835
		c1.345,0.54,2.297,1.309,2.856,2.304c0.561,0.995,0.842,2.512,0.842,4.555v1.957c0,1.331,0.052,2.232,0.158,2.706
		c0.161,0.754,0.537,1.304,1.124,1.66v0.731h-6.719c-0.184-0.644-0.315-1.164-0.396-1.56c-0.157-0.817-0.244-1.654-0.255-2.51
		l-0.039-2.708c-0.026-1.858-0.349-3.095-0.964-3.714c-0.617-0.62-1.772-0.93-3.469-0.93h-5.945v11.422h-5.949V0h13.935
		C364.941,0.038,366.475,0.29,367.549,0.75z M354.966,5.058v7.827h6.553c1.301,0,2.275-0.159,2.927-0.475
		c1.15-0.553,1.729-1.647,1.729-3.28c0-1.765-0.559-2.952-1.672-3.559c-0.627-0.342-1.564-0.514-2.815-0.514H354.966z"/>
	<path fill="#039BB4" d="M397.432,0h8.758v29.128h-5.672V9.426c0-0.565,0.007-1.361,0.02-2.381s0.021-1.808,0.021-2.362
		l-5.521,24.445h-5.914l-5.482-24.445c0,0.554,0.005,1.342,0.021,2.362c0.013,1.021,0.018,1.816,0.018,2.381v19.702h-5.672V0h8.857
		l5.305,22.904L397.432,0z"/>
	<path fill="#039BB4" d="M420.154,0h6.887l10.306,29.128h-6.602l-1.92-5.987h-10.729l-1.975,5.987h-6.365L420.154,0z
		 M419.753,18.122h7.459l-3.679-11.463L419.753,18.122z"/>
	<path fill="#039BB4" d="M441.052,0h6.085v23.892h14.546v5.236h-20.631V0z"/>
	<path fill="#039BB4" d="M463.719,23.992l14.89-18.834h-14.514V0h22.075v4.88l-15.081,19.111h15.12v5.136h-22.49V23.992z"/>
	<path fill="#85888B" d="M8.489,35.425c1.017,0.337,1.84,0.945,2.468,1.838c0.504,0.721,0.851,1.5,1.034,2.34
		s0.275,1.638,0.275,2.399c0,1.927-0.387,3.557-1.161,4.893c-1.048,1.804-2.667,2.702-4.858,2.702H0V35.11h6.247
		C7.145,35.125,7.892,35.229,8.489,35.425z M2.939,37.629v9.453h2.794c1.432,0,2.428-0.705,2.993-2.114
		c0.307-0.773,0.462-1.693,0.462-2.763c0-1.471-0.231-2.603-0.693-3.394c-0.464-0.791-1.383-1.183-2.762-1.183H2.939z"/>
	<path fill="#85888B" d="M18.679,35.11h3.425l5.125,14.486h-3.281l-0.956-2.978h-5.335l-0.981,2.978h-3.167L18.679,35.11z
		 M18.479,44.124h3.71l-1.83-5.701L18.479,44.124z"/>
	<path fill="#85888B" d="M31.253,45.127c0.093,0.661,0.277,1.157,0.551,1.482c0.501,0.595,1.361,0.894,2.579,0.894
		c0.728,0,1.321-0.076,1.776-0.235c0.863-0.3,1.294-0.861,1.294-1.679c0-0.481-0.211-0.851-0.634-1.113
		c-0.423-0.255-1.092-0.479-2.011-0.677l-1.568-0.344c-1.542-0.34-2.601-0.709-3.178-1.109c-0.976-0.669-1.464-1.716-1.464-3.135
		c0-1.298,0.477-2.378,1.433-3.236c0.956-0.857,2.358-1.285,4.209-1.285c1.544,0,2.862,0.403,3.954,1.212
		c1.091,0.81,1.662,1.986,1.716,3.524h-2.908c-0.056-0.873-0.444-1.491-1.17-1.855c-0.482-0.244-1.083-0.366-1.803-0.366
		c-0.8,0-1.438,0.157-1.915,0.472c-0.477,0.314-0.715,0.755-0.715,1.316c0,0.518,0.234,0.907,0.706,1.161
		c0.302,0.171,0.943,0.371,1.924,0.599l2.542,0.599c1.115,0.264,1.948,0.614,2.505,1.055c0.863,0.681,1.295,1.667,1.295,2.958
		c0,1.323-0.512,2.422-1.534,3.294c-1.025,0.877-2.47,1.313-4.337,1.313c-1.907,0-3.407-0.43-4.5-1.291
		c-1.092-0.862-1.637-2.049-1.637-3.553H31.253z"/>
	<path fill="#85888B" d="M50.271,45.127c0.092,0.661,0.277,1.157,0.551,1.482c0.5,0.595,1.361,0.894,2.579,0.894
		c0.729,0,1.322-0.076,1.776-0.235c0.863-0.3,1.294-0.861,1.294-1.679c0-0.481-0.21-0.851-0.634-1.113
		c-0.424-0.255-1.093-0.479-2.012-0.677l-1.567-0.344c-1.542-0.34-2.602-0.709-3.178-1.109c-0.977-0.669-1.464-1.716-1.464-3.135
		c0-1.298,0.477-2.378,1.433-3.236c0.956-0.857,2.359-1.285,4.209-1.285c1.543,0,2.861,0.403,3.955,1.212
		c1.09,0.81,1.662,1.986,1.715,3.524H56.02c-0.055-0.873-0.443-1.491-1.169-1.855c-0.482-0.244-1.084-0.366-1.802-0.366
		c-0.801,0-1.439,0.157-1.916,0.472c-0.477,0.314-0.715,0.755-0.715,1.316c0,0.518,0.235,0.907,0.707,1.161
		c0.301,0.171,0.942,0.371,1.925,0.599l2.542,0.599c1.115,0.264,1.948,0.614,2.505,1.055c0.863,0.681,1.296,1.667,1.296,2.958
		c0,1.323-0.513,2.422-1.535,3.294c-1.023,0.877-2.47,1.313-4.336,1.313c-1.906,0-3.408-0.43-4.5-1.291
		c-1.093-0.862-1.638-2.049-1.638-3.553H50.271z"/>
	<path fill="#85888B" d="M65.655,35.11h3.426l5.125,14.486h-3.282l-0.956-2.978h-5.335l-0.981,2.978h-3.167L65.655,35.11z
		 M65.456,44.124h3.71l-1.831-5.701L65.456,44.124z"/>
	<path fill="#85888B" d="M76,35.11h3.173l5.751,10.102V35.11h2.821v14.486h-3.027L78.82,39.318v10.278H76V35.11z"/>
	<path fill="#85888B" d="M93.345,49.597h-3.008V35.11h3.008V49.597z"/>
	<path fill="#85888B" d="M106.702,35.11v2.565h-4.333v11.921h-3.047V37.676h-4.355V35.11H106.702z"/>
	<path fill="#85888B" d="M112.613,35.11h3.426l5.125,14.486h-3.282l-0.956-2.978h-5.335l-0.981,2.978h-3.167L112.613,35.11z
		 M111.055,31.436h2.566v2.329h-2.566V31.436z M112.414,44.124h3.71l-1.831-5.701L112.414,44.124z M114.987,31.436h2.564v2.329
		h-2.564V31.436z"/>
	<path fill="#85888B" d="M133.533,35.11v2.565h-4.333v11.921h-3.046V37.676h-4.355V35.11H133.533z"/>
	<path fill="#85888B" d="M137.484,45.127c0.092,0.661,0.276,1.157,0.551,1.482c0.5,0.595,1.361,0.894,2.579,0.894
		c0.728,0,1.321-0.076,1.776-0.235c0.863-0.3,1.294-0.861,1.294-1.679c0-0.481-0.211-0.851-0.634-1.113
		c-0.424-0.255-1.093-0.479-2.012-0.677l-1.567-0.344c-1.542-0.34-2.601-0.709-3.178-1.109c-0.977-0.669-1.464-1.716-1.464-3.135
		c0-1.298,0.477-2.378,1.432-3.236c0.957-0.857,2.359-1.285,4.21-1.285c1.544,0,2.861,0.403,3.954,1.212
		c1.091,0.81,1.662,1.986,1.716,3.524h-2.909c-0.055-0.873-0.443-1.491-1.169-1.855c-0.482-0.244-1.084-0.366-1.803-0.366
		c-0.801,0-1.438,0.157-1.916,0.472s-0.715,0.755-0.715,1.316c0,0.518,0.235,0.907,0.707,1.161c0.301,0.171,0.942,0.371,1.924,0.599
		l2.542,0.599c1.115,0.264,1.949,0.614,2.505,1.055c0.864,0.681,1.296,1.667,1.296,2.958c0,1.323-0.513,2.422-1.535,3.294
		c-1.024,0.877-2.47,1.313-4.337,1.313c-1.906,0-3.407-0.43-4.5-1.291c-1.093-0.862-1.638-2.049-1.638-3.553H137.484z"/>
	<path fill="#85888B" d="M148.707,49.597V35.11h3.005v5.524h5.633V35.11h3.006v14.486h-3.006V43.13h-5.633v6.467H148.707z"/>
	<path fill="#85888B" d="M167.404,35.11h3.426l5.125,14.486h-3.282l-0.955-2.978h-5.335l-0.981,2.978h-3.167L167.404,35.11z
		 M167.205,44.124h3.71l-1.83-5.701L167.205,44.124z"/>
	<path fill="#85888B" d="M177.795,35.11h3.076v8.9c0,0.994,0.119,1.719,0.353,2.178c0.366,0.812,1.163,1.216,2.39,1.216
		c1.221,0,2.014-0.404,2.38-1.216c0.234-0.459,0.352-1.184,0.352-2.178v-8.9h3.076v8.903c0,1.541-0.239,2.739-0.716,3.597
		c-0.889,1.576-2.586,2.36-5.091,2.36c-2.506,0-4.207-0.784-5.102-2.36c-0.479-0.857-0.718-2.056-0.718-3.597V35.11z"/>
	<path fill="#85888B" d="M194.515,45.127c0.092,0.661,0.277,1.157,0.551,1.482c0.5,0.595,1.361,0.894,2.579,0.894
		c0.728,0,1.321-0.076,1.776-0.235c0.863-0.3,1.294-0.861,1.294-1.679c0-0.481-0.211-0.851-0.634-1.113
		c-0.423-0.255-1.093-0.479-2.012-0.677l-1.567-0.344c-1.542-0.34-2.601-0.709-3.178-1.109c-0.976-0.669-1.464-1.716-1.464-3.135
		c0-1.298,0.477-2.378,1.432-3.236c0.957-0.857,2.359-1.285,4.21-1.285c1.544,0,2.861,0.403,3.954,1.212
		c1.091,0.81,1.662,1.986,1.716,3.524h-2.908c-0.056-0.873-0.444-1.491-1.17-1.855c-0.482-0.244-1.083-0.366-1.803-0.366
		c-0.801,0-1.438,0.157-1.916,0.472c-0.477,0.314-0.715,0.755-0.715,1.316c0,0.518,0.235,0.907,0.707,1.161
		c0.301,0.171,0.943,0.371,1.924,0.599l2.542,0.599c1.115,0.264,1.949,0.614,2.506,1.055c0.863,0.681,1.295,1.667,1.295,2.958
		c0,1.323-0.512,2.422-1.535,3.294c-1.024,0.877-2.469,1.313-4.337,1.313c-1.906,0-3.407-0.43-4.5-1.291
		c-1.093-0.862-1.638-2.049-1.638-3.553H194.515z"/>
	<path fill="#85888B" d="M229.73,35.11v2.565h-4.333v11.921h-3.047V37.676h-4.355V35.11H229.73z"/>
	<path fill="#85888B" d="M242.21,37.676h-7.666v3.076h7.038v2.515h-7.038v3.728h8.019v2.603h-10.978V35.11h10.625V37.676z"/>
	<path fill="#85888B" d="M246.307,36.626c1.167-1.194,2.651-1.789,4.453-1.789c2.411,0,4.175,0.798,5.29,2.396
		c0.615,0.898,0.945,1.8,0.991,2.701h-3.027c-0.192-0.689-0.439-1.216-0.74-1.57c-0.541-0.628-1.338-0.942-2.397-0.942
		c-1.078,0-1.929,0.442-2.552,1.33c-0.623,0.889-0.934,2.145-0.934,3.768c0,1.628,0.328,2.844,0.986,3.654
		c0.656,0.809,1.491,1.212,2.503,1.212c1.038,0,1.829-0.348,2.376-1.043c0.302-0.373,0.551-0.931,0.749-1.678h3.008
		c-0.261,1.578-0.923,2.861-1.987,3.853c-1.067,0.986-2.434,1.482-4.1,1.482c-2.061,0-3.682-0.669-4.862-2.004
		c-1.179-1.343-1.77-3.184-1.77-5.523C244.293,39.943,244.965,37.995,246.307,36.626z"/>
	<path fill="#85888B" d="M259.44,49.597V35.11h3.006v5.524h5.633V35.11h3.007v14.486h-3.007V43.13h-5.633v6.467H259.44z"/>
	<path fill="#85888B" d="M273.947,35.11h3.172l5.75,10.102V35.11h2.822v14.486h-3.027l-5.898-10.278v10.278h-2.818V35.11z"/>
	<path fill="#85888B" d="M291.291,49.597h-3.008V35.11h3.008V49.597z"/>
	<path fill="#85888B" d="M296.304,45.127c0.093,0.661,0.278,1.157,0.552,1.482c0.501,0.595,1.36,0.894,2.578,0.894
		c0.729,0,1.321-0.076,1.777-0.235c0.862-0.3,1.294-0.861,1.294-1.679c0-0.481-0.212-0.851-0.635-1.113
		c-0.423-0.255-1.092-0.479-2.01-0.677l-1.569-0.344c-1.541-0.34-2.601-0.709-3.177-1.109c-0.977-0.669-1.465-1.716-1.465-3.135
		c0-1.298,0.477-2.378,1.434-3.236c0.955-0.857,2.358-1.285,4.209-1.285c1.543,0,2.861,0.403,3.953,1.212
		c1.093,0.81,1.664,1.986,1.716,3.524h-2.907c-0.055-0.873-0.444-1.491-1.17-1.855c-0.483-0.244-1.084-0.366-1.804-0.366
		c-0.799,0-1.437,0.157-1.914,0.472c-0.477,0.314-0.716,0.755-0.716,1.316c0,0.518,0.234,0.907,0.706,1.161
		c0.302,0.171,0.942,0.371,1.924,0.599l2.543,0.599c1.114,0.264,1.948,0.614,2.505,1.055c0.864,0.681,1.295,1.667,1.295,2.958
		c0,1.323-0.511,2.422-1.533,3.294c-1.025,0.877-2.471,1.313-4.337,1.313c-1.906,0-3.407-0.43-4.501-1.291
		c-1.092-0.862-1.637-2.049-1.637-3.553H296.304z"/>
	<path fill="#85888B" d="M308.931,36.626c1.167-1.194,2.651-1.789,4.453-1.789c2.41,0,4.175,0.798,5.29,2.396
		c0.615,0.898,0.945,1.8,0.991,2.701h-3.027c-0.192-0.689-0.439-1.216-0.741-1.57c-0.54-0.628-1.338-0.942-2.397-0.942
		c-1.077,0-1.929,0.442-2.552,1.33c-0.622,0.889-0.933,2.145-0.933,3.768c0,1.628,0.327,2.844,0.984,3.654
		c0.656,0.809,1.493,1.212,2.504,1.212c1.038,0,1.829-0.348,2.376-1.043c0.301-0.373,0.55-0.931,0.749-1.678h3.008
		c-0.261,1.578-0.923,2.861-1.989,3.853C316.58,49.504,315.215,50,313.548,50c-2.061,0-3.682-0.669-4.861-2.004
		c-1.18-1.343-1.77-3.184-1.77-5.523C306.917,39.943,307.588,37.995,308.931,36.626z"/>
	<path fill="#85888B" d="M322.063,49.597V35.11h3.007v5.524h5.633V35.11h3.005v14.486h-3.005V43.13h-5.633v6.467H322.063z"/>
	<path fill="#85888B" d="M347.329,37.676h-7.666v3.076h7.038v2.515h-7.038v3.728h8.02v2.603h-10.977V35.11h10.623V37.676z"/>
	<path fill="#85888B" d="M366.789,48.311c-1.096,1.126-2.678,1.689-4.748,1.689c-2.068,0-3.65-0.563-4.746-1.689
		c-1.467-1.384-2.2-3.376-2.2-5.975c0-2.655,0.733-4.646,2.2-5.976c1.096-1.128,2.678-1.689,4.746-1.689
		c2.07,0,3.652,0.562,4.748,1.689c1.461,1.33,2.192,3.32,2.192,5.976C368.981,44.935,368.25,46.927,366.789,48.311z M364.897,46.11
		c0.705-0.888,1.057-2.146,1.057-3.774c0-1.628-0.352-2.881-1.057-3.769c-0.705-0.892-1.657-1.334-2.856-1.334
		c-1.198,0-2.155,0.442-2.869,1.326c-0.713,0.884-1.069,2.146-1.069,3.776c0,1.629,0.356,2.887,1.069,3.774
		c0.714,0.884,1.671,1.323,2.869,1.323C363.24,47.434,364.192,46.994,364.897,46.11z"/>
	<path fill="#85888B" d="M380.574,35.483c0.534,0.229,0.985,0.569,1.356,1.014c0.306,0.366,0.55,0.773,0.729,1.22
		c0.178,0.444,0.269,0.95,0.269,1.523c0,0.688-0.174,1.363-0.522,2.029c-0.347,0.662-0.919,1.136-1.719,1.409
		c0.668,0.271,1.142,0.651,1.42,1.146c0.278,0.491,0.418,1.25,0.418,2.262v0.974c0,0.661,0.026,1.113,0.08,1.35
		c0.079,0.372,0.265,0.646,0.558,0.825v0.361h-3.341c-0.092-0.321-0.156-0.581-0.197-0.776c-0.078-0.407-0.12-0.82-0.127-1.245
		l-0.02-1.347c-0.013-0.924-0.171-1.543-0.479-1.849c-0.308-0.308-0.882-0.462-1.726-0.462h-2.955v5.679h-2.958V35.11h6.929
		C379.277,35.132,380.039,35.254,380.574,35.483z M374.318,37.629v3.89h3.257c0.647,0,1.133-0.078,1.455-0.237
		c0.572-0.273,0.859-0.817,0.859-1.631c0-0.876-0.277-1.467-0.83-1.767c-0.312-0.171-0.778-0.255-1.4-0.255H374.318z"/>
	<path fill="#85888B" d="M396.353,35.11v2.565h-4.333v11.921h-3.047V37.676h-4.355V35.11H396.353z"/>
	<path fill="#85888B" d="M398.101,49.597V35.11h3.006v5.524h5.634V35.11h3.006v14.486h-3.006V43.13h-5.634v6.467H398.101z"/>
	<path fill="#85888B" d="M423.811,48.311c-1.094,1.126-2.676,1.689-4.746,1.689c-2.069,0-3.652-0.563-4.746-1.689
		c-1.469-1.384-2.202-3.376-2.202-5.975c0-2.655,0.733-4.646,2.202-5.976c1.094-1.128,2.677-1.689,4.746-1.689
		c2.07,0,3.652,0.562,4.746,1.689c1.463,1.33,2.192,3.32,2.192,5.976C426.003,44.935,425.273,46.927,423.811,48.311z M421.919,46.11
		c0.705-0.888,1.057-2.146,1.057-3.774c0-1.628-0.352-2.881-1.057-3.769c-0.703-0.892-1.655-1.334-2.854-1.334
		c-1.2,0-2.157,0.442-2.87,1.326c-0.714,0.884-1.07,2.146-1.07,3.776c0,1.629,0.356,2.887,1.07,3.774
		c0.713,0.884,1.67,1.323,2.87,1.323C420.264,47.434,421.216,46.994,421.919,46.11z"/>
	<path fill="#85888B" d="M438.039,43.325c-0.85,0.711-2.061,1.062-3.633,1.062h-3.018v5.21h-3.007V35.11h6.22
		c1.434,0,2.576,0.373,3.429,1.12c0.854,0.747,1.279,1.904,1.279,3.472C439.31,41.411,438.887,42.62,438.039,43.325z
		 M435.728,38.108c-0.383-0.32-0.92-0.479-1.609-0.479h-2.729v4.263h2.729c0.689,0,1.227-0.175,1.609-0.521
		c0.384-0.345,0.574-0.895,0.574-1.648C436.302,38.967,436.111,38.431,435.728,38.108z"/>
	<path fill="#85888B" d="M445.881,35.11h3.424l5.126,14.486h-3.281l-0.956-2.978h-5.335l-0.981,2.978h-3.167L445.881,35.11z
		 M444.321,31.436h2.566v2.329h-2.566V31.436z M445.681,44.124h3.711l-1.831-5.701L445.681,44.124z M448.254,31.436h2.564v2.329
		h-2.564V31.436z"/>
	<path fill="#85888B" d="M464.761,35.425c1.018,0.337,1.839,0.945,2.468,1.838c0.504,0.721,0.851,1.5,1.033,2.34
		c0.184,0.84,0.275,1.638,0.275,2.399c0,1.927-0.386,3.557-1.161,4.893c-1.048,1.804-2.667,2.702-4.858,2.702h-6.246V35.11h6.246
		C463.416,35.125,464.163,35.229,464.761,35.425z M459.211,37.629v9.453h2.796c1.431,0,2.427-0.705,2.991-2.114
		c0.308-0.773,0.463-1.693,0.463-2.763c0-1.471-0.231-2.603-0.693-3.394c-0.464-0.791-1.382-1.183-2.761-1.183H459.211z"/>
	<path fill="#85888B" d="M473.569,49.597h-3.008V35.11h3.008V49.597z"/>
	<path fill="#85888B" d="M487.112,37.676h-7.666v3.076h7.038v2.515h-7.038v3.728h8.02v2.603h-10.977V35.11h10.623V37.676z"/>
	<rect x="207.426" y="43.325" fill="#85888B" width="7.275" height="1.279"/>
</g>
</svg>
