<?xml version="1.0" encoding="utf-8"?>
<!-- Generator: Adobe Illustrator 16.0.0, SVG Export Plug-In . SVG Version: 6.00 Build 0)  -->
<!DOCTYPE svg PUBLIC "-//W3C//DTD SVG 1.1//EN" "http://www.w3.org/Graphics/SVG/1.1/DTD/svg11.dtd">
<svg version="1.1" id="Ebene_1" xmlns="http://www.w3.org/2000/svg" xmlns:xlink="http://www.w3.org/1999/xlink" x="0px" y="0px"
	 width="352px" height="30px" viewBox="0 0 352 30" enable-background="new 0 0 352 30" xml:space="preserve">
<g>
	<path fill="#039BB4" d="M41.99,1.612l2.03,8.807l0.442,2.451l0.443-2.401l1.737-8.857h3.391l1.827,8.805l0.468,2.453l0.476-2.357
		l2.05-8.901h3.271L53.8,16.991h-3.077l-1.856-8.994l-0.543-2.974L47.78,7.998l-1.857,8.994h-2.984l-4.36-15.379H41.99z"/>
	<path fill="#039BB4" d="M71.438,4.335h-8.138v3.266h7.47v2.671h-7.47v3.954h8.514v2.765H60.16V1.612h11.278V4.335z"/>
	<path fill="#039BB4" d="M84.174,2.009c0.565,0.243,1.046,0.602,1.439,1.075c0.326,0.389,0.584,0.821,0.773,1.293
		c0.189,0.473,0.284,1.012,0.284,1.618c0,0.73-0.185,1.448-0.552,2.154c-0.369,0.706-0.979,1.205-1.826,1.497
		c0.709,0.285,1.212,0.691,1.508,1.215c0.296,0.525,0.443,1.327,0.443,2.405v1.033c0,0.703,0.028,1.179,0.085,1.43
		c0.085,0.396,0.281,0.688,0.593,0.876v0.386h-3.547c-0.098-0.341-0.167-0.616-0.209-0.825c-0.084-0.43-0.129-0.872-0.136-1.324
		l-0.021-1.429c-0.013-0.981-0.183-1.635-0.508-1.962c-0.325-0.326-0.936-0.49-1.831-0.49h-3.138v6.03h-3.142V1.612h7.356
		C82.798,1.633,83.607,1.765,84.174,2.009z M77.532,4.283v4.131h3.458c0.688,0,1.202-0.083,1.545-0.25
		c0.608-0.292,0.912-0.87,0.912-1.732c0-0.932-0.294-1.558-0.882-1.878c-0.33-0.181-0.825-0.271-1.486-0.271H77.532z"/>
	<path fill="#039BB4" d="M89.697,1.612h3.368l6.105,10.724V1.612h2.994v15.379h-3.213L92.691,6.08v10.912h-2.994V1.612z"/>
	<path fill="#039BB4" d="M116.553,4.335h-8.138v3.266h7.47v2.671h-7.47v3.954h8.514v2.765h-11.654V1.612h11.278V4.335z"/>
	<path fill="#039BB4" d="M129.288,2.009c0.566,0.243,1.046,0.602,1.439,1.075c0.326,0.389,0.584,0.821,0.773,1.293
		c0.19,0.473,0.285,1.012,0.285,1.618c0,0.73-0.185,1.448-0.553,2.154c-0.369,0.706-0.979,1.205-1.826,1.497
		c0.709,0.285,1.212,0.691,1.508,1.215c0.296,0.525,0.443,1.327,0.443,2.405v1.033c0,0.703,0.028,1.179,0.085,1.43
		c0.085,0.396,0.282,0.688,0.593,0.876v0.386h-3.547c-0.098-0.341-0.167-0.616-0.209-0.825c-0.084-0.43-0.129-0.872-0.136-1.324
		l-0.021-1.429c-0.013-0.981-0.183-1.635-0.507-1.962c-0.326-0.326-0.937-0.49-1.832-0.49h-3.138v6.03h-3.141V1.612h7.355
		C127.912,1.633,128.722,1.765,129.288,2.009z M122.646,4.283v4.131h3.458c0.688,0,1.202-0.083,1.546-0.25
		c0.607-0.292,0.911-0.87,0.911-1.732c0-0.932-0.294-1.558-0.881-1.878c-0.331-0.181-0.826-0.271-1.487-0.271H122.646z"/>
	<path fill="#039BB4" d="M141.02,10.563c0.459-0.661,1.211-1.314,2.254-1.962l0.323-0.198c-0.445-0.501-0.79-1.013-1.033-1.535
		c-0.243-0.523-0.364-1.066-0.364-1.63c0-1.121,0.379-1.997,1.14-2.627c0.761-0.63,1.745-0.945,2.957-0.945
		c1.104,0,2.019,0.323,2.739,0.968c0.722,0.646,1.083,1.471,1.083,2.476c0,0.907-0.217,1.643-0.649,2.208
		c-0.433,0.565-1.067,1.089-1.905,1.57l2.211,2.679c0.253-0.361,0.448-0.754,0.586-1.179c0.138-0.424,0.21-0.873,0.217-1.345h2.639
		c-0.049,0.935-0.274,1.88-0.676,2.836c-0.222,0.537-0.583,1.13-1.082,1.779l2.792,3.335h-3.601l-1.069-1.303
		c-0.521,0.481-1.006,0.839-1.455,1.069c-0.802,0.413-1.726,0.619-2.774,0.619c-1.574,0-2.806-0.459-3.69-1.376
		c-0.887-0.919-1.33-1.938-1.33-3.059C140.33,12.017,140.561,11.224,141.02,10.563z M143.926,14.247
		c0.422,0.424,0.961,0.637,1.619,0.637c0.496,0,0.964-0.112,1.406-0.335c0.442-0.223,0.802-0.473,1.078-0.748l-2.877-3.503
		c-0.753,0.495-1.251,0.93-1.494,1.306c-0.243,0.376-0.364,0.791-0.364,1.244C143.294,13.355,143.505,13.821,143.926,14.247z
		 M145.235,6.009c0.13,0.202,0.411,0.561,0.844,1.077c0.433-0.292,0.743-0.54,0.931-0.743c0.36-0.376,0.541-0.784,0.541-1.223
		c0-0.321-0.108-0.606-0.324-0.857c-0.217-0.251-0.545-0.376-0.984-0.376c-0.274,0-0.531,0.073-0.769,0.22
		c-0.361,0.216-0.542,0.558-0.542,1.025C144.932,5.41,145.033,5.703,145.235,6.009z"/>
	<path fill="#039BB4" d="M162.147,16.991V1.612h3.192v5.863h5.979V1.612h3.192v15.379h-3.192v-6.865h-5.979v6.865H162.147z"/>
	<path fill="#039BB4" d="M181.997,1.612h3.636l5.441,15.379h-3.485l-1.014-3.162h-5.664l-1.043,3.162h-3.36L181.997,1.612z
		 M181.785,11.18h3.938l-1.942-6.051L181.785,11.18z"/>
	<path fill="#039BB4" d="M204.5,3.25c0.471,0.654,0.707,1.437,0.707,2.348c0,0.939-0.238,1.694-0.713,2.264
		c-0.266,0.32-0.656,0.612-1.173,0.876c0.784,0.286,1.377,0.737,1.776,1.356s0.6,1.37,0.6,2.254c0,0.911-0.229,1.729-0.686,2.452
		c-0.29,0.48-0.653,0.883-1.088,1.21c-0.491,0.375-1.071,0.633-1.739,0.771c-0.666,0.14-1.391,0.209-2.173,0.209h-6.929V1.612h7.432
		C202.39,1.64,203.719,2.186,204.5,3.25z M196.149,4.283v3.391h3.738c0.668,0,1.21-0.126,1.627-0.381
		c0.416-0.253,0.624-0.704,0.624-1.351c0-0.717-0.274-1.189-0.825-1.419c-0.476-0.16-1.082-0.24-1.817-0.24H196.149z M196.149,10.22
		v4.1h3.734c0.667,0,1.187-0.09,1.558-0.271c0.673-0.334,1.011-0.974,1.011-1.919c0-0.8-0.327-1.35-0.979-1.649
		c-0.365-0.167-0.877-0.253-1.538-0.26H196.149z"/>
	<path fill="#039BB4" d="M219.834,4.335h-8.138v3.266h7.47v2.671h-7.47v3.954h8.514v2.765h-11.654V1.612h11.278V4.335z"/>
	<path fill="#039BB4" d="M232.57,2.009c0.565,0.243,1.046,0.602,1.439,1.075c0.326,0.389,0.584,0.821,0.773,1.293
		c0.19,0.473,0.284,1.012,0.284,1.618c0,0.73-0.184,1.448-0.552,2.154c-0.369,0.706-0.979,1.205-1.826,1.497
		c0.709,0.285,1.212,0.691,1.508,1.215c0.296,0.525,0.443,1.327,0.443,2.405v1.033c0,0.703,0.028,1.179,0.085,1.43
		c0.085,0.396,0.282,0.688,0.593,0.876v0.386h-3.547c-0.098-0.341-0.167-0.616-0.209-0.825c-0.084-0.43-0.129-0.872-0.136-1.324
		l-0.021-1.429c-0.013-0.981-0.183-1.635-0.507-1.962c-0.326-0.326-0.937-0.49-1.832-0.49h-3.138v6.03h-3.142V1.612h7.356
		C231.194,1.633,232.004,1.765,232.57,2.009z M225.929,4.283v4.131h3.458c0.688,0,1.202-0.083,1.545-0.25
		c0.608-0.292,0.912-0.87,0.912-1.732c0-0.932-0.294-1.558-0.882-1.878c-0.33-0.181-0.825-0.271-1.486-0.271H225.929z"/>
	<path fill="#039BB4" d="M248.348,1.612h4.625v15.379h-2.995V6.589c0-0.299,0.003-0.718,0.01-1.257
		c0.008-0.539,0.011-0.955,0.011-1.247l-2.914,12.906h-3.123l-2.894-12.906c0,0.292,0.004,0.708,0.011,1.247
		c0.007,0.54,0.011,0.958,0.011,1.257v10.402h-2.995V1.612h4.677l2.799,12.092L248.348,1.612z"/>
	<path fill="#039BB4" d="M260.343,1.612h3.637l5.44,15.379h-3.484l-1.015-3.162h-5.664l-1.043,3.162h-3.36L260.343,1.612z
		 M260.131,11.18h3.938l-1.942-6.051L260.131,11.18z"/>
	<path fill="#039BB4" d="M271.376,1.612h3.214v12.614h7.68v2.765h-10.894V1.612z"/>
	<path fill="#039BB4" d="M283.344,14.279l7.86-9.944h-7.662V1.612h11.654v2.577l-7.963,10.09h7.983v2.712h-11.873V14.279z"/>
	<path fill="#85888B" d="M38.572,20.176h3.046c1.035,0,1.837,0.371,2.407,1.115c0.509,0.672,0.763,1.53,0.763,2.579
		c0,0.809-0.15,1.54-0.45,2.194c-0.529,1.155-1.438,1.733-2.729,1.733h-3.036V20.176z M41.416,26.915
		c0.342,0,0.622-0.037,0.842-0.109c0.393-0.135,0.714-0.395,0.964-0.777c0.199-0.308,0.344-0.702,0.432-1.184
		c0.051-0.287,0.076-0.553,0.076-0.799c0-0.944-0.184-1.678-0.551-2.2c-0.366-0.521-0.958-0.783-1.773-0.783h-1.79v5.853H41.416z"/>
	<path fill="#85888B" d="M48.424,20.176h1.165l2.767,7.622h-1.132l-0.795-2.284h-2.99l-0.826,2.284h-1.06L48.424,20.176z
		 M50.136,24.674l-1.173-3.367l-1.22,3.367H50.136z"/>
	<path fill="#85888B" d="M53.961,25.338c0.023,0.433,0.122,0.783,0.295,1.054c0.33,0.504,0.912,0.757,1.744,0.757
		c0.374,0,0.714-0.056,1.021-0.166c0.593-0.214,0.889-0.598,0.889-1.151c0-0.415-0.125-0.712-0.377-0.888
		c-0.254-0.173-0.652-0.324-1.195-0.451l-1-0.233c-0.654-0.152-1.116-0.32-1.388-0.504c-0.47-0.318-0.703-0.793-0.703-1.427
		c0-0.685,0.229-1.246,0.69-1.686c0.462-0.439,1.115-0.659,1.959-0.659c0.778,0,1.439,0.193,1.982,0.578
		c0.544,0.386,0.815,1.003,0.815,1.85h-0.971c-0.05-0.407-0.156-0.721-0.317-0.938c-0.302-0.398-0.814-0.598-1.538-0.598
		c-0.583,0-1.003,0.129-1.258,0.385c-0.256,0.256-0.384,0.554-0.384,0.893c0,0.373,0.151,0.646,0.453,0.819
		c0.197,0.111,0.646,0.249,1.342,0.415l1.036,0.244c0.499,0.118,0.884,0.278,1.156,0.483c0.469,0.354,0.704,0.872,0.704,1.551
		c0,0.844-0.3,1.447-0.899,1.811c-0.598,0.363-1.294,0.545-2.087,0.545c-0.924,0-1.647-0.242-2.171-0.727
		c-0.522-0.48-0.778-1.132-0.769-1.956H53.961z"/>
	<path fill="#85888B" d="M64.001,25.338c0.023,0.433,0.122,0.783,0.295,1.054c0.33,0.504,0.912,0.757,1.744,0.757
		c0.374,0,0.714-0.056,1.021-0.166c0.594-0.214,0.889-0.598,0.889-1.151c0-0.415-0.125-0.712-0.376-0.888
		c-0.255-0.173-0.653-0.324-1.196-0.451l-1-0.233c-0.654-0.152-1.116-0.32-1.388-0.504c-0.469-0.318-0.703-0.793-0.703-1.427
		c0-0.685,0.23-1.246,0.69-1.686c0.462-0.439,1.115-0.659,1.959-0.659c0.778,0,1.439,0.193,1.982,0.578
		c0.544,0.386,0.815,1.003,0.815,1.85h-0.97c-0.05-0.407-0.156-0.721-0.318-0.938c-0.302-0.398-0.814-0.598-1.538-0.598
		c-0.583,0-1.003,0.129-1.258,0.385c-0.256,0.256-0.384,0.554-0.384,0.893c0,0.373,0.151,0.646,0.453,0.819
		c0.197,0.111,0.646,0.249,1.342,0.415l1.036,0.244c0.5,0.118,0.884,0.278,1.156,0.483c0.469,0.354,0.704,0.872,0.704,1.551
		c0,0.844-0.3,1.447-0.899,1.811c-0.598,0.363-1.294,0.545-2.087,0.545c-0.924,0-1.647-0.242-2.171-0.727
		c-0.522-0.48-0.778-1.132-0.769-1.956H64.001z"/>
	<path fill="#85888B" d="M72.639,20.176h1.166l2.766,7.622h-1.131l-0.796-2.284h-2.989l-0.827,2.284h-1.059L72.639,20.176z
		 M74.351,24.674l-1.173-3.367l-1.22,3.367H74.351z"/>
	<path fill="#85888B" d="M77.502,20.176h1.216l3.801,6.158v-6.158h0.986v7.622h-1.16l-3.857-6.151v6.151h-0.985V20.176z"/>
	<path fill="#85888B" d="M85.408,20.176h1.043v7.622h-1.043V20.176z"/>
	<path fill="#85888B" d="M93.669,20.176v0.907h-2.568v6.715h-1.042v-6.715h-2.569v-0.907H93.669z"/>
	<path fill="#85888B" d="M96.843,20.176h1.166l2.767,7.622h-1.132l-0.795-2.284h-2.99l-0.827,2.284h-1.059L96.843,20.176z
		 M96.025,18.369h0.97v1.079h-0.97V18.369z M98.556,24.674l-1.174-3.367l-1.219,3.367H98.556z M97.737,18.369h0.971v1.079h-0.971
		V18.369z"/>
	<path fill="#85888B" d="M107.247,20.176v0.907h-2.567v6.715h-1.043v-6.715h-2.569v-0.907H107.247z"/>
	<path fill="#85888B" d="M108.872,25.338c0.023,0.433,0.122,0.783,0.295,1.054c0.329,0.504,0.911,0.757,1.744,0.757
		c0.373,0,0.713-0.056,1.02-0.166c0.594-0.214,0.89-0.598,0.89-1.151c0-0.415-0.125-0.712-0.377-0.888
		c-0.255-0.173-0.653-0.324-1.195-0.451l-1.001-0.233c-0.654-0.152-1.115-0.32-1.387-0.504c-0.47-0.318-0.704-0.793-0.704-1.427
		c0-0.685,0.23-1.246,0.691-1.686s1.114-0.659,1.959-0.659c0.777,0,1.438,0.193,1.982,0.578c0.544,0.386,0.814,1.003,0.814,1.85
		h-0.97c-0.05-0.407-0.156-0.721-0.318-0.938c-0.302-0.398-0.814-0.598-1.537-0.598c-0.584,0-1.004,0.129-1.259,0.385
		c-0.256,0.256-0.383,0.554-0.383,0.893c0,0.373,0.15,0.646,0.452,0.819c0.197,0.111,0.646,0.249,1.343,0.415l1.035,0.244
		c0.5,0.118,0.885,0.278,1.157,0.483c0.468,0.354,0.703,0.872,0.703,1.551c0,0.844-0.3,1.447-0.898,1.811s-1.295,0.545-2.087,0.545
		c-0.925,0-1.647-0.242-2.171-0.727c-0.523-0.48-0.779-1.132-0.77-1.956H108.872z"/>
	<path fill="#85888B" d="M115.312,20.176h1.042v3.149h3.918v-3.149h1.043v7.622h-1.043v-3.564h-3.918v3.564h-1.042V20.176z"/>
	<path fill="#85888B" d="M125.184,20.176h1.165l2.767,7.622h-1.132l-0.795-2.284h-2.99l-0.826,2.284h-1.06L125.184,20.176z
		 M126.896,24.674l-1.173-3.367l-1.22,3.367H126.896z"/>
	<path fill="#85888B" d="M131.162,20.176v4.711c0,0.553,0.104,1.014,0.314,1.381c0.31,0.552,0.832,0.829,1.568,0.829
		c0.883,0,1.481-0.299,1.799-0.897c0.171-0.325,0.257-0.763,0.257-1.312v-4.711h1.042v4.279c0,0.938-0.126,1.66-0.379,2.164
		C135.298,27.54,134.419,28,133.129,28c-1.291,0-2.168-0.46-2.63-1.381c-0.254-0.504-0.38-1.227-0.38-2.164v-4.279H131.162z"/>
	<path fill="#85888B" d="M138.394,25.338c0.023,0.433,0.122,0.783,0.295,1.054c0.33,0.504,0.912,0.757,1.744,0.757
		c0.374,0,0.714-0.056,1.021-0.166c0.594-0.214,0.889-0.598,0.889-1.151c0-0.415-0.124-0.712-0.376-0.888
		c-0.255-0.173-0.653-0.324-1.196-0.451l-1-0.233c-0.654-0.152-1.116-0.32-1.388-0.504c-0.469-0.318-0.703-0.793-0.703-1.427
		c0-0.685,0.23-1.246,0.69-1.686c0.462-0.439,1.115-0.659,1.959-0.659c0.778,0,1.439,0.193,1.983,0.578
		c0.543,0.386,0.814,1.003,0.814,1.85h-0.97c-0.05-0.407-0.156-0.721-0.318-0.938c-0.302-0.398-0.814-0.598-1.538-0.598
		c-0.583,0-1.003,0.129-1.258,0.385c-0.256,0.256-0.384,0.554-0.384,0.893c0,0.373,0.151,0.646,0.453,0.819
		c0.197,0.111,0.646,0.249,1.342,0.415l1.036,0.244c0.5,0.118,0.884,0.278,1.156,0.483c0.469,0.354,0.704,0.872,0.704,1.551
		c0,0.844-0.3,1.447-0.899,1.811c-0.598,0.363-1.294,0.545-2.087,0.545c-0.924,0-1.647-0.242-2.17-0.727
		c-0.523-0.48-0.779-1.132-0.77-1.956H138.394z"/>
	<path fill="#85888B" d="M159.795,20.176v0.907h-2.568v6.715h-1.042v-6.715h-2.569v-0.907H159.795z"/>
	<path fill="#85888B" d="M160.843,20.176h5.531v0.934h-4.525v2.313h4.183v0.883h-4.183v2.584h4.603v0.908h-5.608V20.176z"/>
	<path fill="#85888B" d="M173.223,20.73c0.525,0.508,0.818,1.086,0.876,1.732h-1.006c-0.112-0.49-0.335-0.88-0.67-1.167
		s-0.805-0.431-1.409-0.431c-0.737,0-1.333,0.264-1.785,0.792c-0.454,0.528-0.681,1.337-0.681,2.428
		c0,0.894,0.205,1.618,0.614,2.174c0.408,0.555,1.02,0.832,1.832,0.832c0.747,0,1.316-0.292,1.708-0.876
		c0.207-0.308,0.361-0.713,0.464-1.215h1.006c-0.089,0.803-0.383,1.476-0.882,2.019c-0.599,0.654-1.406,0.981-2.421,0.981
		c-0.876,0-1.61-0.269-2.205-0.806c-0.784-0.709-1.176-1.805-1.176-3.285c0-1.126,0.295-2.048,0.883-2.769
		c0.636-0.782,1.513-1.173,2.631-1.173C171.955,19.968,172.696,20.221,173.223,20.73z"/>
	<path fill="#85888B" d="M175.531,20.176h1.043v3.149h3.918v-3.149h1.042v7.622h-1.042v-3.564h-3.918v3.564h-1.043V20.176z"/>
	<path fill="#85888B" d="M183.18,20.176h1.216l3.801,6.158v-6.158h0.986v7.622h-1.16l-3.857-6.151v6.151h-0.985V20.176z"/>
	<path fill="#85888B" d="M191.087,20.176h1.043v7.622h-1.043V20.176z"/>
	<path fill="#85888B" d="M194.479,25.338c0.023,0.433,0.122,0.783,0.295,1.054c0.33,0.504,0.911,0.757,1.744,0.757
		c0.374,0,0.714-0.056,1.021-0.166c0.593-0.214,0.889-0.598,0.889-1.151c0-0.415-0.125-0.712-0.377-0.888
		c-0.255-0.173-0.652-0.324-1.195-0.451l-1.001-0.233c-0.653-0.152-1.115-0.32-1.387-0.504c-0.47-0.318-0.704-0.793-0.704-1.427
		c0-0.685,0.23-1.246,0.691-1.686c0.462-0.439,1.115-0.659,1.959-0.659c0.778,0,1.438,0.193,1.982,0.578
		c0.544,0.386,0.815,1.003,0.815,1.85h-0.971c-0.05-0.407-0.156-0.721-0.318-0.938c-0.301-0.398-0.813-0.598-1.537-0.598
		c-0.584,0-1.003,0.129-1.258,0.385c-0.256,0.256-0.384,0.554-0.384,0.893c0,0.373,0.151,0.646,0.453,0.819
		c0.197,0.111,0.645,0.249,1.342,0.415l1.036,0.244c0.499,0.118,0.884,0.278,1.156,0.483c0.469,0.354,0.704,0.872,0.704,1.551
		c0,0.844-0.3,1.447-0.899,1.811c-0.599,0.363-1.294,0.545-2.087,0.545c-0.924,0-1.647-0.242-2.171-0.727
		c-0.523-0.48-0.778-1.132-0.769-1.956H194.479z"/>
	<path fill="#85888B" d="M206.283,20.73c0.526,0.508,0.819,1.086,0.877,1.732h-1.007c-0.112-0.49-0.334-0.88-0.669-1.167
		s-0.805-0.431-1.41-0.431c-0.736,0-1.332,0.264-1.785,0.792s-0.68,1.337-0.68,2.428c0,0.894,0.205,1.618,0.613,2.174
		c0.409,0.555,1.021,0.832,1.832,0.832c0.748,0,1.317-0.292,1.709-0.876c0.207-0.308,0.36-0.713,0.463-1.215h1.007
		c-0.089,0.803-0.383,1.476-0.883,2.019c-0.598,0.654-1.405,0.981-2.42,0.981c-0.876,0-1.611-0.269-2.205-0.806
		c-0.784-0.709-1.176-1.805-1.176-3.285c0-1.126,0.295-2.048,0.883-2.769c0.635-0.782,1.513-1.173,2.63-1.173
		C205.017,19.968,205.758,20.221,206.283,20.73z"/>
	<path fill="#85888B" d="M208.593,20.176h1.043v3.149h3.918v-3.149h1.042v7.622h-1.042v-3.564h-3.918v3.564h-1.043V20.176z"/>
	<path fill="#85888B" d="M216.34,20.176h5.531v0.934h-4.525v2.313h4.183v0.883h-4.183v2.584h4.603v0.908h-5.608V20.176z"/>
	<path fill="#85888B" d="M232.56,21.265c0.504,0.675,0.757,1.537,0.757,2.59c0,1.138-0.289,2.084-0.866,2.838
		c-0.678,0.885-1.645,1.328-2.9,1.328c-1.172,0-2.095-0.388-2.766-1.162c-0.598-0.747-0.897-1.692-0.897-2.833
		c0-1.031,0.256-1.912,0.769-2.646c0.656-0.941,1.629-1.411,2.915-1.411C230.916,19.968,231.912,20.4,232.56,21.265z
		 M231.648,26.123c0.407-0.652,0.61-1.403,0.61-2.251c0-0.896-0.234-1.619-0.703-2.165c-0.47-0.547-1.109-0.821-1.923-0.821
		c-0.789,0-1.432,0.271-1.93,0.813c-0.499,0.542-0.748,1.34-0.748,2.396c0,0.844,0.214,1.557,0.642,2.137
		c0.427,0.579,1.12,0.869,2.078,0.869C230.585,27.102,231.242,26.775,231.648,26.123z"/>
	<path fill="#85888B" d="M234.671,20.176h3.464c0.571,0,1.041,0.084,1.411,0.254c0.703,0.324,1.056,0.926,1.056,1.801
		c0,0.456-0.095,0.829-0.283,1.12s-0.453,0.524-0.792,0.701c0.298,0.121,0.521,0.278,0.673,0.476
		c0.15,0.197,0.234,0.518,0.251,0.961l0.037,1.021c0.01,0.291,0.034,0.507,0.072,0.649c0.062,0.242,0.173,0.397,0.332,0.467v0.172
		h-1.267c-0.034-0.066-0.062-0.15-0.083-0.255s-0.038-0.305-0.052-0.603l-0.062-1.271c-0.023-0.498-0.203-0.832-0.538-1.002
		c-0.192-0.094-0.493-0.141-0.903-0.141h-2.283v3.271h-1.032V20.176z M238.024,23.667c0.471,0,0.844-0.097,1.117-0.291
		c0.273-0.193,0.411-0.543,0.411-1.048c0-0.543-0.192-0.912-0.574-1.109c-0.206-0.104-0.48-0.156-0.823-0.156h-2.452v2.604H238.024z
		"/>
	<path fill="#85888B" d="M247.761,20.176v0.907h-2.567v6.715h-1.043v-6.715h-2.569v-0.907H247.761z"/>
	<path fill="#85888B" d="M248.737,20.176h1.042v3.149h3.918v-3.149h1.043v7.622h-1.043v-3.564h-3.918v3.564h-1.042V20.176z"/>
	<path fill="#85888B" d="M262.663,21.265c0.505,0.675,0.758,1.537,0.758,2.59c0,1.138-0.289,2.084-0.867,2.838
		c-0.677,0.885-1.645,1.328-2.899,1.328c-1.173,0-2.095-0.388-2.766-1.162c-0.599-0.747-0.898-1.692-0.898-2.833
		c0-1.031,0.256-1.912,0.769-2.646c0.657-0.941,1.629-1.411,2.916-1.411C261.021,19.968,262.016,20.4,262.663,21.265z
		 M261.753,26.123c0.406-0.652,0.609-1.403,0.609-2.251c0-0.896-0.234-1.619-0.702-2.165c-0.47-0.547-1.11-0.821-1.923-0.821
		c-0.789,0-1.433,0.271-1.931,0.813c-0.498,0.542-0.747,1.34-0.747,2.396c0,0.844,0.214,1.557,0.642,2.137
		c0.426,0.579,1.119,0.869,2.078,0.869C260.688,27.102,261.347,26.775,261.753,26.123z"/>
	<path fill="#85888B" d="M264.748,20.176h3.41c0.675,0,1.22,0.189,1.635,0.572c0.414,0.383,0.621,0.92,0.621,1.611
		c0,0.595-0.186,1.113-0.555,1.555c-0.37,0.439-0.937,0.66-1.699,0.66h-2.379v3.224h-1.033V20.176z M268.753,21.223
		c-0.227-0.106-0.538-0.16-0.932-0.16h-2.04v2.642h2.04c0.459,0,0.833-0.1,1.12-0.297s0.43-0.545,0.43-1.043
		C269.371,21.805,269.165,21.424,268.753,21.223z"/>
	<path fill="#85888B" d="M273.963,20.176h1.165l2.767,7.622h-1.132l-0.795-2.284h-2.99l-0.826,2.284h-1.06L273.963,20.176z
		 M273.145,18.369h0.971v1.079h-0.971V18.369z M275.675,24.674l-1.174-3.367l-1.219,3.367H275.675z M274.856,18.369h0.971v1.079
		h-0.971V18.369z"/>
	<path fill="#85888B" d="M278.872,20.176h3.047c1.034,0,1.837,0.371,2.407,1.115c0.508,0.672,0.762,1.53,0.762,2.579
		c0,0.809-0.15,1.54-0.449,2.194c-0.529,1.155-1.439,1.733-2.729,1.733h-3.037V20.176z M281.717,26.915
		c0.342,0,0.622-0.037,0.842-0.109c0.392-0.135,0.714-0.395,0.964-0.777c0.199-0.308,0.344-0.702,0.432-1.184
		c0.051-0.287,0.076-0.553,0.076-0.799c0-0.944-0.184-1.678-0.551-2.2c-0.367-0.521-0.958-0.783-1.773-0.783h-1.79v5.853H281.717z"
		/>
	<path fill="#85888B" d="M286.732,20.176h1.043v7.622h-1.043V20.176z"/>
	<path fill="#85888B" d="M289.55,20.176h5.532v0.934h-4.525v2.313h4.183v0.883h-4.183v2.584h4.602v0.908h-5.608V20.176z"/>
	<path fill-rule="evenodd" clip-rule="evenodd" fill="#039BB4" d="M316.308,26.098c0-2.438,0.001-7.77,0.001-16.842
		c-0.003,9.071-0.003,14.404-0.002,16.84L316.308,26.098z"/>
	<polygon fill-rule="evenodd" clip-rule="evenodd" fill="#039BB4" points="315.127,19.522 315.127,19.53 315.124,19.521 	"/>
	<path fill-rule="evenodd" clip-rule="evenodd" fill="#039BB4" d="M315.125,25.74c-4.492-1.622-7.701-5.923-7.701-10.973
		c0-2.18,0.597-4.221,1.638-5.966c0.079,0.048,4.618,2.76,4.694,2.804c-0.473,0.965-0.857,2.009-0.857,3.162
		c0,1.909,0.865,3.619,2.226,4.754L315.125,25.74z"/>
	<path fill-rule="evenodd" clip-rule="evenodd" fill="#039BB4" d="M316.305,9.238c-0.661,0.333-1.256,0.783-1.755,1.32l-4.726-2.879
		c2.131-2.782,5.488-4.576,9.263-4.576s7.129,1.793,9.261,4.573l-4.814,2.786c-0.495-0.51-1.077-0.935-1.721-1.251
		c0,0-0.01,14.447,0,16.901c-0.893,0.219-1.768,0.319-2.726,0.319s-1.889-0.114-2.78-0.333
		C316.327,20.562,316.305,9.238,316.305,9.238"/>
	<path fill-rule="evenodd" clip-rule="evenodd" fill="#039BB4" d="M323.008,25.734c4.491-1.622,7.701-5.923,7.701-10.975
		c0-2.179-0.599-4.22-1.64-5.965c-0.077,0.048-4.618,2.761-4.694,2.805c0.474,0.964,0.858,2.009,0.858,3.161
		c0,1.91-0.866,3.618-2.225,4.754L323.008,25.734z"/>
	<rect x="304.421" y="1.66" fill-rule="evenodd" clip-rule="evenodd" fill="#039BB4" width="0.596" height="26.136"/>
	<rect x="306.218" y="1.66" fill-rule="evenodd" clip-rule="evenodd" fill="#039BB4" width="0.596" height="26.136"/>
	<rect x="331.291" y="1.66" fill-rule="evenodd" clip-rule="evenodd" fill="#039BB4" width="0.597" height="26.136"/>
	<rect x="334.117" y="1.66" fill-rule="evenodd" clip-rule="evenodd" fill="#039BB4" width="0.595" height="26.136"/>
	<rect x="337.937" y="1.66" fill-rule="evenodd" clip-rule="evenodd" fill="#039BB4" width="0.595" height="26.136"/>
	<rect x="343.176" y="1.66" fill-rule="evenodd" clip-rule="evenodd" fill="#039BB4" width="0.595" height="26.136"/>
	<rect x="350.403" y="1.66" fill-rule="evenodd" clip-rule="evenodd" fill="#039BB4" width="0.595" height="26.136"/>
	<rect x="304.421" y="27.2" fill-rule="evenodd" clip-rule="evenodd" fill="#039BB4" width="46.577" height="0.596"/>
	<path fill-rule="evenodd" clip-rule="evenodd" fill="#039BB4" d="M331.755,6.581c0.328,0.21,1.019,0.819,2.327,0.883
		c0.377,0.019,0.638,0.109,1.04,0.214c0.318,0.084,0.938,0.284,1.198,0.35c0.627,0.159,0.833,0.164,1.608,0.309
		c0.56,0.105,1.081,0.197,1.779,0.214c0.618,0.016,1.319,0.628,1.58-0.091c0.03-0.081,0.023-0.288-0.012-0.37
		c-0.079-0.191-0.249-0.306-0.387-0.456c-0.516-0.563-0.598-1.483-0.157-2.11c0.164-0.232,0.573-0.479,0.873-0.476
		c1.426,0.014,1.702,1.042,1.237,2.264c-0.093,0.247-0.31,0.416-0.333,0.699c-0.026,0.296,0.227,0.622,0.57,0.725
		c0.355-0.036,0.604-0.036,0.876-0.265c0.467-0.394,0.719-0.896,1.106-1.237c0.407-0.357,1.098-0.69,1.449-1.099
		c0.421-0.495,0.365-0.593,0.663-0.919c0.34-0.372,0.727-0.543,0.99-0.832c0.268-0.292,0.579-0.823,0.992-1.271
		c0.395-0.423,0.896-0.777,1.04-0.592c-0.002,0.108-0.625,0.509-0.55,0.85c0.071,0.325,0.445-0.279,0.562-0.005
		c-0.009,0.356-0.73,0.562-0.92,0.769c-0.725,0.795-1.078,1.847-1.788,2.65c-0.12,0.136-0.282,0.227-0.398,0.366
		c-0.251,0.298-0.43,0.663-0.688,0.963c-0.735,0.857-2.005,1.932-2.402,3.048c-0.229,0.646-0.35,2.685-0.208,3.333
		c0.097,0.451,0.322,0.862,0.484,1.289c0.505,1.312,0.517,3.17,0.517,3.17c0.018,0.422,0.173,0.516,0.188,0.918
		c0.003,0.088,0.087,0.523,0.117,0.612c0.434,1.23,0.457,3.701,1.044,4.792c-0.023,0.158,0.747,1.071,0.901,1.215
		c0.086,0.08,0.459,0.221,0.418,0.346c-0.022,0.07-0.144,0.117-0.144,0.117c-0.659-0.063-0.862-0.3-1.109-0.41
		c-0.269-0.071-0.902-0.152-1.039-0.274c-0.233-0.207-0.029-0.629-0.025-0.896c0.011-0.828-0.774-1.671-1.158-2.784
		c-0.184-0.529-0.191-0.865-0.431-1.376c-0.13-0.277-0.244-0.416-0.386-0.688c-0.462-0.879-0.97-2.355-0.97-2.355
		c-0.115-0.286-0.159-0.567-0.233-0.864c-0.019-0.071-0.053-0.313-0.117-0.275c-0.255,0.962-0.639,1.91-1.119,2.783
		c-0.272,0.497-0.671,0.932-0.925,1.441c-0.229,0.459-0.165,1.044-0.384,1.542c-0.225,0.513-0.532,0.867-0.841,1.437
		c-0.26,0.479-0.611,0.893-0.633,1.248c-0.008,0.154,0.004,0.248,0.002,0.402c-0.008,0.512-0.511,0.53-0.983,0.661
		c-0.65,0.18-0.317,0.449-1.311,0.414c-0.069-0.002-0.224-0.012-0.248-0.104c-0.036-0.142,0.268-0.306,0.369-0.349
		c0.42-0.173,0.846-0.601,1.124-0.954c0.516-0.656,1.277-3.649,1.205-4.414c0,0,0.101-0.486,0.205-0.785
		c0.053-0.15,0.098-0.228,0.152-0.376c0.088-0.246,0.135-0.385,0.188-0.643c0.234-1.542,0.722-2.919,1.387-4.318
		c0.607-1.28,0.112-4.178-1.225-4.818c0,0-0.539-0.211-0.88-0.356c-0.673-0.285-1.521-0.739-1.698-0.79
		c-0.279-0.082-0.871-0.165-1.409-0.337c-0.289-0.092-0.447-0.156-0.729-0.267c-0.481-0.188-0.965-0.532-1.21-0.541
		c-0.053,0.031-0.144,0.02-0.206,0.032c-0.117,0.022-0.531,0.085-0.775,0.299c-0.071,0.063-0.168,0.147-0.167,0.183L331.755,6.581z
		 M331.821,7.23c-0.054,0.155-0.021,0.565-0.021,0.727c0.078-0.005,0.441-0.211,0.46-0.29C332.289,7.527,332.054,7.311,331.821,7.23
		"/>
	<rect x="304.422" y="1.66" fill="#039BB4" width="46.578" height="0.596"/>
	<path fill-rule="evenodd" clip-rule="evenodd" fill="#039BB4" d="M13.771,6.254l0.11,2.274l-0.027,1.193l0.331,1.415l0.723,0.942
		l1.054,1.026l0.832,0.944l1.027,1.386l0.665,1.055l0.666,1.053c0,0,0.832,0.556,0.915,0.638c0.084,0.084,0.832,0.195,0.832,0.195
		s0.833,0.027,1.083,0.055c0.248,0.029,1.83,0.057,1.83,0.057v-6.796H18.32V6.199L13.771,6.254z"/>
	<path fill-rule="evenodd" clip-rule="evenodd" fill="#039BB4" d="M8.358,11.786H6.194v6.684h5.411v5.379h6.842v-2.324
		c0,0-1.21,0.096-2.292-1.082s-2.45-3.214-4.582-3.278s-4.042,0.064-3.947-2.514C7.977,13.441,8.358,11.786,8.358,11.786"/>
	<path fill-rule="evenodd" clip-rule="evenodd" fill="#039BB4" d="M8.085,5.318c0.579,2.836,0.974,5.584,0.142,8.063
		c-0.21,0.626-0.521,1.334-0.354,2.051c0.471,2.009,2.612,1.045,4.669,1.626c1.767,0.499,2.782,2.091,3.89,3.182
		c0.287,0.285,1.013,0.97,1.486,1.062c0.517,0.102,1.165-0.146,1.908-0.143c0.988,0.007,1.856,0.373,2.475,0.213
		c0.4-0.104,1.18-0.621,0.991-1.272c-0.146-0.502-1.984-0.678-2.547-0.99c-1.49-0.83-2.23-2.469-3.323-3.96
		c-1.227-1.674-3.213-2.69-3.679-4.669c-0.481-2.048-0.152-4.875-0.07-7.425c4.003-0.409,7.345,1.125,9.407,3.041
		c2.117,1.968,3.655,4.464,3.96,8.063c0.317,3.755-1.031,6.665-2.97,8.91c-2.103,2.438-5.365,4.308-9.902,4.033
		c-3.054-0.186-5.819-1.646-7.639-3.466c-1.833-1.834-3.321-4.61-3.536-7.568c-0.33-4.524,1.639-7.903,4.031-9.972
		C7.344,5.82,7.604,5.382,8.085,5.318 M4.902,9.42c-0.948,1.71-1.668,3.82-1.484,6.508c0.384,5.635,4.994,10.389,10.82,10.749
		c3.666,0.229,6.618-1.134,8.699-3.04c2.06-1.885,3.767-4.782,3.748-8.629c-0.016-3.413-1.476-6.302-3.465-8.275
		c-1.867-1.852-5.474-3.639-9.194-3.253c0.051,0.9-0.08,1.619-0.071,2.476c1.533,0.047,3.254-0.095,4.669,0.07v5.446h5.517
		c-0.046,2.382,0.094,4.951-0.07,7.213c-0.99,0.049-2.169-0.093-3.042,0.072c0.752,0.598,2.479,0.209,2.688,1.202
		c0.217,1.027-0.664,1.812-1.626,1.91c-0.549,0.055-1.123-0.139-1.699-0.213c-0.646-0.084-1.185-0.062-1.768,0.07v2.405
		c-2.382-0.047-4.951,0.094-7.215-0.07v-5.377H5.964c0.047-2.381-0.095-4.949,0.069-7.213h2.193
		c0.087-1.769-0.115-3.838-0.424-5.446C6.483,6.92,5.623,8.122,4.902,9.42 M13.955,6.592c0.122,1.221-0.094,3.103,0.354,4.243
		c0.512,1.304,2.143,2.478,3.112,3.608c0.689,0.805,1.947,3.485,3.041,3.748c1.022,0.246,2.325-0.187,3.254,0v-6.294
		c-1.816-0.047-3.819,0.094-5.518-0.071c-0.047-1.792,0.094-3.771-0.07-5.447h-4.032C14.008,6.408,13.952,6.471,13.955,6.592
		 M6.459,11.896c-0.166,1.957-0.023,4.219-0.07,6.294c1.814,0.047,3.816-0.093,5.515,0.07v5.447h6.296v-1.91
		c-0.572-0.166-0.795-0.203-1.061-0.354c-1.631-0.922-2.872-3.83-5.587-4.102c-1.249-0.124-2.373,0.084-3.185-0.426
		c-0.589-0.368-0.963-1.29-0.988-1.837c-0.062-1.302,0.665-1.913,0.777-3.183H6.459z"/>
	<path fill="#039BB4" d="M29.411,29.206H1V0.794h28.411V29.206z M1.614,28.591h27.182V1.409H1.614V28.591z"/>
	<rect x="147.036" y="24.486" fill="#85888B" width="3.839" height="0.674"/>
	<path fill="#039BB4" d="M315.128,25.74v-6.213V25.74z"/>
</g>
</svg>
