<?xml version="1.0" encoding="utf-8"?>
<!-- Generator: Adobe Illustrator 16.0.0, SVG Export Plug-In . SVG Version: 6.00 Build 0)  -->
<!DOCTYPE svg PUBLIC "-//W3C//DTD SVG 1.1//EN" "http://www.w3.org/Graphics/SVG/1.1/DTD/svg11.dtd">
<svg version="1.1" id="Ebene_1" xmlns="http://www.w3.org/2000/svg" xmlns:xlink="http://www.w3.org/1999/xlink" x="0px" y="0px"
	 width="500px" height="41px" viewBox="0 -0.294 500 41" enable-background="new 0 -0.294 500 41" xml:space="preserve">
<g>
	<path fill="#039BB4" d="M58.557,0.875l2.899,12.582l0.632,3.501l0.632-3.43l2.482-12.653h4.845l2.609,12.579l0.67,3.504
		l0.679-3.366l2.928-12.716h4.673l-6.179,21.971h-4.396l-2.651-12.85l-0.776-4.249l-0.779,4.25l-2.652,12.849h-4.263L53.685,0.876
		h4.873V0.875z"/>
	<path fill="#039BB4" d="M100.625,4.765H89v4.666h10.671v3.815H89v5.649h12.163v3.95H84.514V0.875h16.111V4.765z"/>
	<path fill="#039BB4" d="M118.82,1.442c0.806,0.347,1.494,0.859,2.055,1.536c0.466,0.556,0.834,1.173,1.105,1.847
		c0.271,0.676,0.406,1.446,0.406,2.312c0,1.043-0.265,2.068-0.788,3.077c-0.527,1.009-1.399,1.722-2.609,2.139
		c1.013,0.407,1.731,0.987,2.154,1.735c0.423,0.75,0.633,1.896,0.633,3.437v1.476c0,1.004,0.039,1.685,0.122,2.042
		c0.121,0.566,0.4,0.983,0.847,1.253v0.552h-5.067c-0.141-0.488-0.239-0.881-0.298-1.18c-0.12-0.613-0.185-1.245-0.196-1.892
		l-0.029-2.041c-0.018-1.401-0.261-2.336-0.726-2.803c-0.464-0.466-1.337-0.7-2.616-0.7h-4.483v8.615h-4.488V0.875h10.509
		C116.854,0.905,118.009,1.093,118.82,1.442z M109.332,4.691v5.901h4.939c0.982,0,1.716-0.118,2.207-0.357
		c0.868-0.417,1.302-1.243,1.302-2.475c0-1.331-0.42-2.226-1.26-2.682c-0.472-0.259-1.178-0.387-2.122-0.387H109.332z"/>
	<path fill="#039BB4" d="M126.709,0.875h4.812l8.722,15.32V0.875h4.277v21.971h-4.59l-8.943-15.588v15.589h-4.277V0.875z"/>
	<path fill="#039BB4" d="M165.075,4.765H153.45v4.666h10.671v3.815H153.45v5.649h12.163v3.95h-16.649V0.875h16.112V4.765z"/>
	<path fill="#039BB4" d="M183.269,1.442c0.808,0.347,1.494,0.859,2.055,1.536c0.466,0.556,0.835,1.173,1.105,1.847
		c0.271,0.676,0.407,1.446,0.407,2.312c0,1.043-0.266,2.068-0.792,3.077c-0.526,1.009-1.397,1.722-2.608,2.139
		c1.013,0.407,1.733,0.987,2.155,1.735c0.423,0.75,0.633,1.896,0.633,3.437v1.476c0,1.004,0.04,1.685,0.121,2.042
		c0.121,0.566,0.403,0.983,0.848,1.253v0.552h-5.067c-0.14-0.488-0.239-0.881-0.3-1.18c-0.119-0.613-0.183-1.245-0.192-1.892
		l-0.029-2.041c-0.02-1.401-0.264-2.336-0.727-2.803c-0.463-0.466-1.337-0.7-2.615-0.7h-4.484v8.615h-4.486V0.875h10.506
		C181.304,0.905,182.459,1.093,183.269,1.442z M173.78,4.691v5.901h4.94c0.982,0,1.717-0.118,2.208-0.357
		c0.867-0.417,1.301-1.243,1.301-2.475c0-1.331-0.419-2.226-1.258-2.682c-0.473-0.259-1.181-0.387-2.125-0.387H173.78z"/>
	<path fill="#039BB4" d="M200.028,13.662c0.656-0.945,1.731-1.877,3.221-2.803l0.461-0.283c-0.636-0.715-1.128-1.446-1.475-2.192
		c-0.349-0.748-0.52-1.523-0.52-2.329c0-1.601,0.541-2.853,1.628-3.753c1.086-0.899,2.492-1.349,4.224-1.349
		c1.576,0,2.884,0.461,3.914,1.382c1.03,0.924,1.547,2.101,1.547,3.537c0,1.296-0.312,2.348-0.928,3.154
		c-0.618,0.807-1.525,1.556-2.722,2.243l3.158,3.827c0.361-0.515,0.64-1.078,0.837-1.684c0.198-0.606,0.3-1.248,0.312-1.921h3.77
		c-0.069,1.335-0.393,2.686-0.966,4.051c-0.317,0.768-0.833,1.613-1.546,2.541l3.989,4.766h-5.146l-1.526-1.863
		c-0.745,0.688-1.437,1.2-2.078,1.527c-1.146,0.59-2.467,0.885-3.963,0.885c-2.25,0-4.01-0.656-5.272-1.965
		c-1.268-1.313-1.899-2.769-1.899-4.37C199.043,15.739,199.372,14.606,200.028,13.662z M204.179,18.925
		c0.603,0.604,1.374,0.91,2.314,0.91c0.707,0,1.376-0.16,2.009-0.479c0.63-0.319,1.146-0.676,1.539-1.069l-4.11-5.004
		c-1.075,0.707-1.787,1.329-2.133,1.866c-0.348,0.537-0.521,1.13-0.521,1.777C203.277,17.65,203.579,18.315,204.179,18.925z
		 M206.049,7.155c0.188,0.29,0.587,0.802,1.207,1.54c0.617-0.417,1.061-0.771,1.33-1.062c0.515-0.537,0.772-1.12,0.772-1.746
		c0-0.459-0.155-0.866-0.465-1.225c-0.308-0.358-0.777-0.537-1.403-0.537c-0.392,0-0.759,0.104-1.1,0.314
		c-0.516,0.309-0.774,0.797-0.774,1.464C205.616,6.301,205.762,6.719,206.049,7.155z"/>
	<path fill="#039BB4" d="M230.209,22.846V0.875h4.561v8.376h8.541V0.875h4.56v21.971h-4.56v-9.808h-8.541v9.808H230.209z"/>
	<path fill="#039BB4" d="M258.568,0.875h5.193l7.773,21.971h-4.979l-1.448-4.518h-8.092l-1.489,4.518h-4.801L258.568,0.875z
		 M258.265,14.544h5.625l-2.775-8.645L258.265,14.544z"/>
	<path fill="#039BB4" d="M290.715,3.215c0.672,0.934,1.01,2.053,1.01,3.354c0,1.341-0.341,2.419-1.019,3.233
		c-0.381,0.458-0.938,0.875-1.677,1.252c1.12,0.408,1.967,1.053,2.537,1.937s0.856,1.957,0.856,3.22
		c0,1.301-0.326,2.471-0.979,3.503c-0.415,0.686-0.934,1.262-1.555,1.728c-0.701,0.536-1.53,0.904-2.483,1.103
		c-0.953,0.199-1.988,0.299-3.105,0.299h-9.898V0.875h10.616C287.699,0.915,289.598,1.695,290.715,3.215z M278.783,4.691v4.843
		h5.341c0.953,0,1.728-0.179,2.323-0.544c0.595-0.361,0.893-1.006,0.893-1.93c0-1.024-0.392-1.698-1.18-2.027
		c-0.679-0.229-1.546-0.342-2.594-0.342H278.783z M278.783,13.171v5.857h5.335c0.953,0,1.694-0.128,2.226-0.387
		c0.961-0.478,1.444-1.391,1.444-2.74c0-1.144-0.467-1.929-1.399-2.357c-0.521-0.238-1.252-0.361-2.196-0.371h-5.409V13.171z"/>
	<path fill="#039BB4" d="M312.62,4.765h-11.628v4.666h10.673v3.815h-10.673v5.649h12.165v3.95h-16.649V0.875h16.112V4.765
		L312.62,4.765z"/>
	<path fill="#039BB4" d="M330.813,1.442c0.809,0.347,1.495,0.859,2.058,1.536c0.466,0.556,0.833,1.173,1.104,1.847
		c0.271,0.676,0.405,1.446,0.405,2.312c0,1.043-0.263,2.068-0.787,3.077c-0.528,1.009-1.398,1.722-2.609,2.139
		c1.013,0.407,1.73,0.987,2.154,1.735c0.424,0.75,0.633,1.896,0.633,3.437v1.476c0,1.004,0.041,1.685,0.121,2.042
		c0.121,0.566,0.403,0.983,0.848,1.253v0.552h-5.068c-0.14-0.488-0.238-0.881-0.298-1.18c-0.12-0.613-0.185-1.245-0.194-1.892
		l-0.031-2.041c-0.018-1.401-0.26-2.336-0.724-2.803c-0.466-0.466-1.338-0.7-2.617-0.7h-4.482v8.615h-4.486V0.875h10.507
		C328.847,0.905,330.006,1.093,330.813,1.442z M321.326,4.691v5.901h4.94c0.983,0,1.718-0.118,2.206-0.357
		c0.869-0.417,1.305-1.243,1.305-2.475c0-1.331-0.421-2.226-1.261-2.682c-0.472-0.259-1.178-0.387-2.123-0.387H321.326z"/>
	<path fill="#039BB4" d="M353.354,0.875h6.607v21.971h-4.279V7.984c0-0.427,0.005-1.025,0.015-1.795
		c0.013-0.771,0.016-1.365,0.016-1.782l-4.163,18.438h-4.46l-4.135-18.438c0,0.417,0.005,1.011,0.016,1.782
		c0.01,0.771,0.016,1.368,0.016,1.795v14.861h-4.279V0.875h6.682l3.998,17.275L353.354,0.875z"/>
	<path fill="#039BB4" d="M370.489,0.875h5.197l7.771,21.971h-4.978l-1.45-4.518h-8.092l-1.49,4.518h-4.8L370.489,0.875z
		 M370.187,14.544h5.626l-2.774-8.645L370.187,14.544z"/>
	<path fill="#039BB4" d="M386.252,0.875h4.591v18.021h10.971v3.95h-15.562V0.875L386.252,0.875z"/>
	<path fill="#039BB4" d="M403.349,18.97l11.228-14.205h-10.944v-3.89h16.647v3.682L408.904,18.97h11.404v3.876h-16.962V18.97
		H403.349z"/>
	<path fill="#85888B" d="M53.673,27.395h4.354c1.477,0,2.624,0.529,3.437,1.593c0.728,0.96,1.091,2.185,1.091,3.685
		c0,1.157-0.215,2.199-0.644,3.135c-0.756,1.649-2.055,2.475-3.899,2.475h-4.335V27.395H53.673z M57.738,37.021
		c0.488,0,0.889-0.053,1.203-0.154c0.561-0.194,1.02-0.564,1.377-1.111c0.284-0.44,0.491-1.002,0.617-1.691
		c0.074-0.409,0.108-0.79,0.108-1.142c0-1.35-0.262-2.396-0.787-3.143c-0.523-0.743-1.369-1.119-2.533-1.119h-2.556v8.361
		L57.738,37.021L57.738,37.021z"/>
	<path fill="#85888B" d="M67.748,27.395h1.665l3.952,10.889h-1.617l-1.136-3.264h-4.271l-1.18,3.264h-1.514L67.748,27.395z
		 M70.194,33.82l-1.676-4.811l-1.742,4.811H70.194z"/>
	<path fill="#85888B" d="M75.658,34.77c0.032,0.618,0.175,1.118,0.422,1.506c0.471,0.72,1.303,1.08,2.491,1.08
		c0.535,0,1.02-0.079,1.458-0.236c0.847-0.306,1.271-0.854,1.271-1.646c0-0.593-0.179-1.016-0.539-1.269
		c-0.364-0.245-0.932-0.461-1.708-0.644l-1.429-0.333c-0.935-0.217-1.595-0.458-1.982-0.72c-0.672-0.455-1.004-1.133-1.004-2.038
		c0-0.979,0.327-1.781,0.985-2.409c0.66-0.626,1.593-0.941,2.798-0.941c1.112,0,2.057,0.275,2.833,0.826
		c0.777,0.552,1.163,1.433,1.163,2.643h-1.386c-0.071-0.582-0.224-1.03-0.454-1.339c-0.431-0.569-1.162-0.855-2.196-0.855
		c-0.833,0-1.434,0.185-1.798,0.549c-0.366,0.368-0.548,0.792-0.548,1.277c0,0.533,0.216,0.923,0.647,1.17
		c0.281,0.159,0.923,0.357,1.917,0.594l1.48,0.348c0.713,0.169,1.262,0.396,1.652,0.69c0.669,0.505,1.006,1.243,1.006,2.215
		c0,1.206-0.428,2.067-1.285,2.586c-0.854,0.52-1.848,0.78-2.981,0.78c-1.319,0-2.352-0.345-3.101-1.039
		c-0.746-0.687-1.111-1.617-1.1-2.794L75.658,34.77L75.658,34.77z"/>
	<path fill="#85888B" d="M90.001,34.77c0.032,0.618,0.175,1.118,0.422,1.506c0.471,0.72,1.303,1.08,2.491,1.08
		c0.535,0,1.02-0.079,1.458-0.236c0.848-0.306,1.271-0.854,1.271-1.646c0-0.593-0.179-1.016-0.537-1.269
		c-0.365-0.245-0.934-0.461-1.709-0.644l-1.429-0.333c-0.935-0.217-1.595-0.458-1.982-0.72c-0.671-0.455-1.004-1.133-1.004-2.038
		c0-0.979,0.328-1.781,0.985-2.409c0.66-0.626,1.594-0.941,2.798-0.941c1.112,0,2.057,0.275,2.833,0.826
		c0.777,0.552,1.164,1.433,1.164,2.643h-1.386c-0.071-0.582-0.223-1.03-0.455-1.339c-0.431-0.569-1.162-0.855-2.196-0.855
		c-0.832,0-1.434,0.185-1.798,0.549c-0.366,0.368-0.548,0.792-0.548,1.277c0,0.533,0.216,0.923,0.647,1.17
		c0.282,0.159,0.922,0.357,1.917,0.594l1.48,0.348c0.714,0.169,1.262,0.396,1.651,0.69c0.669,0.505,1.006,1.243,1.006,2.215
		c0,1.206-0.43,2.067-1.285,2.586c-0.854,0.52-1.848,0.78-2.981,0.78c-1.319,0-2.352-0.345-3.101-1.039
		c-0.746-0.687-1.111-1.617-1.1-2.794L90.001,34.77L90.001,34.77z"/>
	<path fill="#85888B" d="M102.342,27.395h1.665l3.951,10.889h-1.615l-1.137-3.264h-4.271l-1.18,3.264h-1.514L102.342,27.395z
		 M104.787,33.82l-1.676-4.811l-1.742,4.811H104.787z"/>
	<path fill="#85888B" d="M109.288,27.395h1.737l5.43,8.797v-8.797h1.409v10.889h-1.658l-5.511-8.788v8.788h-1.406V27.395H109.288z"
		/>
	<path fill="#85888B" d="M120.584,27.395h1.489v10.889h-1.489V27.395z"/>
	<path fill="#85888B" d="M132.384,27.395v1.295h-3.669v9.594h-1.488v-9.594h-3.669v-1.295H132.384z"/>
	<path fill="#85888B" d="M136.918,27.395h1.666l3.952,10.889h-1.617l-1.135-3.264h-4.272l-1.18,3.264h-1.514L136.918,27.395z
		 M135.749,24.813h1.387v1.542h-1.387V24.813z M139.365,33.82l-1.677-4.811l-1.741,4.811H139.365z M138.195,24.813h1.388v1.542
		h-1.388V24.813z"/>
	<path fill="#85888B" d="M151.781,27.395v1.295h-3.667v9.594h-1.49v-9.594h-3.67v-1.295H151.781z"/>
	<path fill="#85888B" d="M154.103,34.77c0.032,0.618,0.175,1.118,0.421,1.506c0.471,0.72,1.302,1.08,2.492,1.08
		c0.533,0,1.018-0.079,1.456-0.236c0.848-0.306,1.271-0.854,1.271-1.646c0-0.593-0.179-1.016-0.539-1.269
		c-0.364-0.245-0.932-0.461-1.707-0.644l-1.429-0.333c-0.935-0.217-1.593-0.458-1.983-0.72c-0.671-0.455-1.004-1.133-1.004-2.038
		c0-0.979,0.328-1.781,0.986-2.409s1.592-0.941,2.799-0.941c1.111,0,2.055,0.275,2.832,0.826c0.777,0.552,1.162,1.433,1.162,2.643
		h-1.386c-0.071-0.582-0.223-1.03-0.454-1.339c-0.432-0.569-1.163-0.855-2.197-0.855c-0.833,0-1.434,0.185-1.798,0.549
		c-0.365,0.368-0.547,0.792-0.547,1.277c0,0.533,0.215,0.923,0.646,1.17c0.282,0.159,0.922,0.357,1.918,0.594l1.479,0.348
		c0.714,0.169,1.264,0.396,1.653,0.69c0.668,0.505,1.004,1.243,1.004,2.215c0,1.206-0.43,2.067-1.283,2.586
		c-0.854,0.521-1.85,0.78-2.981,0.78c-1.321,0-2.354-0.345-3.102-1.039c-0.748-0.687-1.113-1.617-1.101-2.794L154.103,34.77
		L154.103,34.77z"/>
	<path fill="#85888B" d="M163.303,27.395h1.488v4.499h5.597v-4.499h1.49v10.889h-1.49v-5.091h-5.597v5.091h-1.488V27.395z"/>
	<path fill="#85888B" d="M177.406,27.395h1.664l3.953,10.889h-1.617l-1.137-3.264h-4.27l-1.18,3.264h-1.515L177.406,27.395z
		 M179.85,33.82l-1.674-4.811l-1.743,4.811H179.85z"/>
	<path fill="#85888B" d="M185.946,27.395v6.729c0,0.79,0.148,1.449,0.448,1.973c0.443,0.79,1.188,1.186,2.241,1.186
		c1.261,0,2.114-0.428,2.569-1.282c0.243-0.464,0.367-1.089,0.367-1.874v-6.73h1.487v6.113c0,1.341-0.179,2.371-0.541,3.092
		c-0.664,1.313-1.919,1.971-3.763,1.971s-3.098-0.657-3.756-1.972c-0.363-0.72-0.543-1.752-0.543-3.092v-6.113H185.946z"/>
	<path fill="#85888B" d="M196.277,34.77c0.033,0.618,0.175,1.118,0.421,1.506c0.472,0.72,1.304,1.08,2.492,1.08
		c0.534,0,1.02-0.079,1.459-0.236c0.849-0.306,1.27-0.854,1.27-1.646c0-0.593-0.178-1.016-0.536-1.269
		c-0.366-0.245-0.934-0.461-1.71-0.644l-1.429-0.333c-0.934-0.217-1.594-0.458-1.982-0.72c-0.669-0.455-1.004-1.133-1.004-2.038
		c0-0.979,0.329-1.781,0.986-2.409c0.659-0.626,1.592-0.941,2.798-0.941c1.111,0,2.056,0.275,2.832,0.826
		c0.776,0.552,1.165,1.433,1.165,2.643h-1.388c-0.071-0.582-0.222-1.03-0.454-1.339c-0.43-0.569-1.162-0.855-2.196-0.855
		c-0.834,0-1.433,0.185-1.798,0.549c-0.365,0.368-0.547,0.792-0.547,1.277c0,0.533,0.214,0.923,0.645,1.17
		c0.282,0.159,0.924,0.357,1.919,0.594l1.479,0.348c0.714,0.169,1.264,0.396,1.65,0.69c0.67,0.505,1.006,1.243,1.006,2.215
		c0,1.206-0.428,2.067-1.283,2.586c-0.855,0.52-1.849,0.78-2.982,0.78c-1.32,0-2.353-0.345-3.1-1.039
		c-0.746-0.687-1.112-1.617-1.099-2.794L196.277,34.77L196.277,34.77z"/>
	<path fill="#85888B" d="M226.85,27.395v1.295h-3.668v9.594h-1.489v-9.594h-3.67v-1.295H226.85z"/>
	<path fill="#85888B" d="M228.346,27.395h7.903v1.333h-6.466v3.306h5.977v1.262h-5.977v3.692h6.576v1.296h-8.012V27.395H228.346z"/>
	<path fill="#85888B" d="M246.032,28.187c0.75,0.727,1.169,1.551,1.251,2.474h-1.438c-0.159-0.699-0.478-1.257-0.956-1.667
		s-1.149-0.614-2.014-0.614c-1.053,0-1.904,0.376-2.55,1.13c-0.648,0.754-0.972,1.911-0.972,3.468c0,1.278,0.292,2.312,0.877,3.106
		c0.582,0.792,1.457,1.188,2.617,1.188c1.067,0,1.879-0.417,2.44-1.252c0.295-0.438,0.515-1.019,0.662-1.734h1.437
		c-0.126,1.146-0.547,2.107-1.259,2.883c-0.857,0.935-2.009,1.402-3.459,1.402c-1.251,0-2.301-0.383-3.15-1.151
		c-1.119-1.013-1.681-2.578-1.681-4.692c0-1.608,0.423-2.927,1.263-3.956c0.908-1.116,2.16-1.676,3.759-1.676
		C244.221,27.098,245.28,27.458,246.032,28.187z"/>
	<path fill="#85888B" d="M249.329,27.395h1.491v4.499h5.597v-4.499h1.488v10.889h-1.488v-5.091h-5.597v5.091h-1.491V27.395z"/>
	<path fill="#85888B" d="M260.256,27.395h1.737l5.43,8.797v-8.797h1.409v10.889h-1.657l-5.51-8.788v8.788h-1.407V27.395H260.256z"/>
	<path fill="#85888B" d="M271.552,27.395h1.49v10.889h-1.49V27.395z"/>
	<path fill="#85888B" d="M276.398,34.77c0.034,0.618,0.175,1.118,0.421,1.506c0.472,0.72,1.303,1.08,2.491,1.08
		c0.535,0,1.021-0.079,1.46-0.236c0.848-0.306,1.27-0.854,1.27-1.646c0-0.593-0.179-1.016-0.538-1.269
		c-0.365-0.245-0.933-0.461-1.708-0.644l-1.43-0.333c-0.933-0.217-1.593-0.458-1.98-0.72c-0.671-0.455-1.007-1.133-1.007-2.038
		c0-0.979,0.33-1.781,0.989-2.409c0.658-0.626,1.591-0.941,2.797-0.941c1.111,0,2.055,0.275,2.831,0.826
		c0.777,0.552,1.164,1.433,1.164,2.643h-1.386c-0.072-0.582-0.223-1.03-0.455-1.339c-0.43-0.569-1.162-0.855-2.195-0.855
		c-0.834,0-1.434,0.185-1.797,0.549c-0.366,0.368-0.549,0.792-0.549,1.277c0,0.533,0.216,0.923,0.646,1.17
		c0.282,0.159,0.923,0.357,1.919,0.594l1.48,0.348c0.711,0.169,1.262,0.396,1.65,0.69c0.671,0.505,1.006,1.243,1.006,2.215
		c0,1.206-0.429,2.067-1.283,2.586c-0.857,0.52-1.849,0.78-2.982,0.78c-1.32,0-2.353-0.345-3.102-1.039
		c-0.746-0.687-1.111-1.617-1.1-2.794L276.398,34.77L276.398,34.77z"/>
	<path fill="#85888B" d="M293.263,28.187c0.75,0.727,1.168,1.551,1.251,2.474h-1.439c-0.159-0.699-0.476-1.257-0.955-1.667
		s-1.15-0.614-2.013-0.614c-1.053,0-1.904,0.376-2.551,1.13c-0.647,0.754-0.973,1.911-0.973,3.468c0,1.278,0.294,2.312,0.876,3.106
		c0.585,0.792,1.46,1.188,2.617,1.188c1.068,0,1.882-0.417,2.441-1.252c0.297-0.438,0.516-1.019,0.661-1.734h1.439
		c-0.127,1.146-0.547,2.107-1.262,2.883c-0.854,0.935-2.007,1.402-3.457,1.402c-1.252,0-2.303-0.383-3.149-1.151
		c-1.121-1.013-1.681-2.578-1.681-4.692c0-1.608,0.422-2.927,1.262-3.956c0.906-1.116,2.161-1.676,3.757-1.676
		C291.452,27.098,292.511,27.458,293.263,28.187z"/>
	<path fill="#85888B" d="M296.562,27.395h1.489v4.499h5.597v-4.499h1.489v10.889h-1.489v-5.091h-5.597v5.091h-1.489V27.395z"/>
	<path fill="#85888B" d="M307.628,27.395h7.901v1.333h-6.464v3.306h5.975v1.262h-5.975v3.692h6.576v1.296h-8.012V27.395H307.628z"/>
	<path fill="#85888B" d="M330.799,28.951c0.721,0.964,1.081,2.194,1.081,3.699c0,1.625-0.412,2.979-1.235,4.055
		c-0.97,1.264-2.352,1.898-4.145,1.898c-1.674,0-2.991-0.557-3.949-1.661c-0.856-1.069-1.283-2.418-1.283-4.049
		c0-1.472,0.365-2.73,1.1-3.779c0.937-1.343,2.327-2.016,4.163-2.016C328.45,27.098,329.874,27.715,330.799,28.951z M329.496,35.89
		c0.581-0.931,0.872-2.003,0.872-3.215c0-1.279-0.334-2.313-1.005-3.093c-0.671-0.781-1.585-1.174-2.746-1.174
		c-1.128,0-2.045,0.388-2.757,1.163c-0.713,0.773-1.068,1.913-1.068,3.421c0,1.207,0.306,2.226,0.916,3.055
		c0.61,0.825,1.6,1.241,2.969,1.241C327.978,37.288,328.917,36.821,329.496,35.89z"/>
	<path fill="#85888B" d="M333.816,27.395h4.948c0.815,0,1.487,0.12,2.016,0.362c1.005,0.463,1.509,1.323,1.509,2.573
		c0,0.653-0.135,1.185-0.404,1.602c-0.269,0.415-0.646,0.748-1.132,0.999c0.427,0.174,0.745,0.398,0.962,0.681
		c0.213,0.281,0.333,0.741,0.358,1.374l0.053,1.458c0.015,0.416,0.049,0.725,0.103,0.927c0.089,0.346,0.246,0.568,0.475,0.667v0.246
		h-1.81c-0.049-0.094-0.089-0.213-0.118-0.363c-0.031-0.152-0.056-0.437-0.075-0.862l-0.089-1.815
		c-0.033-0.712-0.29-1.189-0.769-1.432c-0.273-0.134-0.704-0.202-1.29-0.202h-3.261v4.673h-1.474V27.395H333.816z M338.605,32.382
		c0.674,0,1.207-0.139,1.597-0.416c0.39-0.274,0.586-0.774,0.586-1.496c0-0.776-0.274-1.303-0.82-1.586
		c-0.293-0.147-0.685-0.223-1.175-0.223h-3.502v3.721H338.605z"/>
	<path fill="#85888B" d="M352.516,27.395v1.295h-3.669v9.594h-1.489v-9.594h-3.669v-1.295H352.516z"/>
	<path fill="#85888B" d="M353.908,27.395h1.488v4.499h5.597v-4.499h1.493v10.889h-1.493v-5.091h-5.597v5.091h-1.488V27.395z"/>
	<path fill="#85888B" d="M373.805,28.951c0.721,0.964,1.082,2.194,1.082,3.699c0,1.625-0.413,2.979-1.239,4.055
		c-0.967,1.264-2.349,1.898-4.142,1.898c-1.676,0-2.993-0.557-3.951-1.661c-0.855-1.069-1.282-2.418-1.282-4.049
		c0-1.472,0.367-2.73,1.099-3.779c0.938-1.343,2.327-2.016,4.165-2.016C371.457,27.098,372.879,27.715,373.805,28.951z
		 M372.504,35.89c0.58-0.931,0.869-2.003,0.869-3.215c0-1.279-0.334-2.313-1.002-3.093c-0.673-0.781-1.586-1.174-2.747-1.174
		c-1.129,0-2.048,0.388-2.759,1.163c-0.712,0.773-1.067,1.913-1.067,3.421c0,1.207,0.306,2.226,0.917,3.055
		c0.609,0.825,1.599,1.241,2.969,1.241C370.982,37.288,371.923,36.821,372.504,35.89z"/>
	<path fill="#85888B" d="M376.782,27.395h4.871c0.965,0,1.743,0.271,2.337,0.816c0.591,0.547,0.887,1.315,0.887,2.304
		c0,0.849-0.267,1.59-0.795,2.221c-0.527,0.628-1.338,0.943-2.426,0.943h-3.399v4.604h-1.475V27.395L376.782,27.395z M382.504,28.89
		c-0.325-0.15-0.769-0.229-1.333-0.229h-2.914v3.775h2.914c0.656,0,1.19-0.143,1.602-0.424c0.409-0.282,0.615-0.779,0.615-1.49
		C383.388,29.722,383.093,29.178,382.504,28.89z"/>
	<path fill="#85888B" d="M389.947,27.395h1.665l3.952,10.889h-1.617l-1.135-3.264h-4.271l-1.181,3.264h-1.514L389.947,27.395z
		 M388.779,24.813h1.388v1.542h-1.388V24.813z M392.393,33.82l-1.677-4.811l-1.743,4.811H392.393z M391.222,24.813h1.389v1.542
		h-1.389V24.813z"/>
	<path fill="#85888B" d="M396.96,27.395h4.353c1.478,0,2.624,0.529,3.438,1.593c0.726,0.96,1.089,2.185,1.089,3.685
		c0,1.157-0.216,2.199-0.642,3.135c-0.756,1.649-2.056,2.475-3.898,2.475h-4.338V27.395H396.96z M401.024,37.021
		c0.488,0,0.889-0.053,1.202-0.154c0.562-0.194,1.021-0.564,1.377-1.111c0.286-0.44,0.494-1.002,0.618-1.691
		c0.073-0.409,0.107-0.79,0.107-1.142c0-1.35-0.262-2.396-0.786-3.143c-0.524-0.743-1.368-1.119-2.532-1.119h-2.558v8.361
		L401.024,37.021L401.024,37.021z"/>
	<path fill="#85888B" d="M408.188,27.395h1.49v10.889h-1.49V27.395z"/>
	<path fill="#85888B" d="M412.214,27.395h7.903v1.333h-6.465v3.306h5.976v1.262h-5.976v3.692h6.574v1.296h-8.012L412.214,27.395
		L412.214,27.395z"/>
	<path fill="#039BB4" d="M450.44,35.854c0-3.482,0.001-11.1,0.001-24.06c-0.004,12.958-0.004,20.578-0.003,24.057L450.44,35.854z"/>
	<polygon fill="#039BB4" points="448.752,26.459 448.752,26.473 448.747,26.459 	"/>
	<path fill="#039BB4" d="M448.75,35.344c-6.418-2.317-11.002-8.462-11.002-15.676c0-3.115,0.853-6.031,2.34-8.523
		c0.112,0.069,6.597,3.943,6.706,4.006c-0.677,1.378-1.225,2.87-1.225,4.518c0,2.726,1.236,5.169,3.181,6.791V35.344z"/>
	<path fill="#039BB4" d="M450.435,11.769c-0.943,0.476-1.794,1.12-2.507,1.886l-6.752-4.113c3.045-3.975,7.841-6.538,13.233-6.538
		s10.185,2.562,13.229,6.533l-6.878,3.98c-0.706-0.728-1.538-1.335-2.458-1.787c0,0-0.014,20.639,0,24.143
		c-1.274,0.314-2.525,0.458-3.894,0.458s-2.699-0.163-3.972-0.477C450.465,27.946,450.435,11.769,450.435,11.769"/>
	<path fill="#039BB4" d="M460.011,35.335c6.415-2.318,11.001-8.463,11.001-15.68c0-3.112-0.855-6.027-2.343-8.521
		c-0.11,0.069-6.598,3.945-6.707,4.008c0.679,1.376,1.227,2.869,1.227,4.515c0,2.729-1.237,5.169-3.178,6.791V35.335z"/>
	<rect x="433.459" y="0.943" fill="#039BB4" width="0.85" height="37.337"/>
	<rect x="436.026" y="0.943" fill="#039BB4" width="0.851" height="37.337"/>
	<rect x="471.843" y="0.943" fill="#039BB4" width="0.854" height="37.337"/>
	<rect x="475.881" y="0.943" fill="#039BB4" width="0.85" height="37.337"/>
	<rect x="481.338" y="0.943" fill="#039BB4" width="0.849" height="37.337"/>
	<rect x="488.823" y="0.943" fill="#039BB4" width="0.85" height="37.337"/>
	<rect x="499.146" y="0.943" fill="#039BB4" width="0.85" height="37.337"/>
	<rect x="433.459" y="37.429" fill="#039BB4" width="66.536" height="0.852"/>
	<path fill="#039BB4" d="M472.507,7.973c0.468,0.3,1.454,1.169,3.323,1.261c0.539,0.027,0.913,0.156,1.485,0.306
		c0.455,0.121,1.341,0.406,1.712,0.5c0.896,0.228,1.189,0.234,2.298,0.441c0.8,0.15,1.544,0.282,2.54,0.306
		c0.883,0.023,1.885,0.898,2.258-0.129c0.044-0.116,0.033-0.412-0.017-0.529c-0.113-0.273-0.356-0.437-0.554-0.652
		c-0.737-0.804-0.854-2.119-0.224-3.014c0.234-0.332,0.818-0.685,1.247-0.68c2.037,0.02,2.432,1.488,1.768,3.235
		c-0.135,0.352-0.443,0.594-0.476,0.998c-0.038,0.424,0.323,0.889,0.813,1.036c0.508-0.051,0.864-0.051,1.251-0.378
		c0.668-0.563,1.028-1.28,1.581-1.768c0.581-0.51,1.567-0.985,2.07-1.57c0.601-0.707,0.52-0.847,0.947-1.313
		c0.485-0.532,1.037-0.775,1.413-1.188c0.383-0.417,0.826-1.176,1.417-1.816c0.565-0.604,1.281-1.109,1.486-0.845
		c-0.003,0.154-0.893,0.728-0.786,1.214c0.103,0.464,0.637-0.399,0.802-0.007c-0.012,0.509-1.041,0.802-1.312,1.099
		c-1.037,1.136-1.541,2.638-2.555,3.786c-0.171,0.193-0.402,0.324-0.568,0.522c-0.358,0.426-0.614,0.947-0.983,1.376
		c-1.05,1.224-2.864,2.76-3.431,4.354c-0.328,0.922-0.501,3.835-0.298,4.761c0.138,0.644,0.459,1.231,0.692,1.842
		c0.72,1.873,0.738,4.527,0.738,4.527c0.025,0.603,0.246,0.738,0.268,1.312c0.005,0.126,0.124,0.746,0.167,0.874
		c0.62,1.757,0.653,5.287,1.492,6.845c-0.032,0.227,1.067,1.531,1.287,1.736c0.123,0.113,0.656,0.316,0.597,0.495
		c-0.03,0.1-0.206,0.167-0.206,0.167c-0.94-0.091-1.23-0.429-1.583-0.587c-0.385-0.102-1.29-0.216-1.484-0.392
		c-0.333-0.296-0.042-0.898-0.036-1.279c0.015-1.183-1.104-2.388-1.655-3.978c-0.263-0.756-0.271-1.235-0.614-1.966
		c-0.187-0.395-0.35-0.595-0.552-0.983c-0.66-1.256-1.386-3.363-1.386-3.363c-0.164-0.408-0.227-0.81-0.333-1.235
		c-0.028-0.1-0.076-0.445-0.167-0.391c-0.364,1.373-0.913,2.727-1.6,3.975c-0.387,0.711-0.957,1.331-1.32,2.059
		c-0.327,0.655-0.236,1.491-0.548,2.203c-0.322,0.732-0.762,1.238-1.201,2.052c-0.374,0.686-0.874,1.276-0.906,1.783
		c-0.012,0.221,0.007,0.354,0.004,0.574c-0.012,0.731-0.731,0.758-1.405,0.944c-0.928,0.258-0.452,0.643-1.872,0.592
		c-0.099-0.003-0.319-0.017-0.354-0.149c-0.051-0.202,0.384-0.437,0.526-0.497c0.601-0.248,1.21-0.858,1.606-1.363
		c0.738-0.938,1.824-5.212,1.722-6.306c0,0,0.146-0.695,0.293-1.122c0.075-0.213,0.141-0.325,0.218-0.536
		c0.125-0.351,0.191-0.551,0.268-0.92c0.334-2.202,1.032-4.169,1.982-6.167c0.865-1.829,0.159-5.969-1.751-6.883
		c0,0-0.771-0.302-1.257-0.509c-0.961-0.407-2.173-1.055-2.426-1.128c-0.398-0.117-1.245-0.235-2.014-0.481
		c-0.411-0.131-0.637-0.222-1.04-0.38c-0.688-0.27-1.379-0.761-1.729-0.773c-0.076,0.043-0.206,0.028-0.296,0.045
		c-0.167,0.031-0.758,0.122-1.107,0.428c-0.1,0.089-0.24,0.209-0.237,0.261L472.507,7.973z M472.601,8.9
		c-0.077,0.221-0.029,0.807-0.029,1.039c0.11-0.007,0.629-0.301,0.656-0.414C473.269,9.325,472.934,9.017,472.601,8.9"/>
	<rect x="433.46" y="0.943" fill="#039BB4" width="66.54" height="0.851"/>
	<path fill="#039BB4" d="M18.244,7.506l0.158,3.248l-0.04,1.705l0.473,2.021l1.034,1.345l1.505,1.466l1.188,1.349l1.466,1.98
		l0.95,1.508l0.951,1.504c0,0,1.189,0.793,1.308,0.911c0.12,0.12,1.188,0.278,1.188,0.278s1.19,0.04,1.547,0.079
		c0.355,0.041,2.615,0.08,2.615,0.08v-9.708h-7.846V7.428L18.244,7.506z"/>
	<path fill="#039BB4" d="M10.511,15.409H7.419v9.548h7.73v7.686h9.774v-3.32c0,0-1.729,0.137-3.274-1.546
		c-1.545-1.683-3.499-4.592-6.544-4.684c-3.047-0.09-5.776,0.092-5.639-3.592C9.967,17.773,10.511,15.409,10.511,15.409"/>
	<path fill="#039BB4" d="M10.122,6.169c0.827,4.051,1.391,7.977,0.202,11.518c-0.3,0.895-0.744,1.906-0.505,2.932
		c0.672,2.87,3.73,1.492,6.67,2.323c2.524,0.711,3.975,2.985,5.557,4.546c0.41,0.406,1.447,1.385,2.123,1.516
		c0.738,0.146,1.664-0.208,2.726-0.204c1.411,0.01,2.651,0.533,3.535,0.305c0.572-0.15,1.685-0.888,1.416-1.817
		c-0.209-0.718-2.834-0.969-3.638-1.414c-2.129-1.186-3.187-3.528-4.748-5.657c-1.754-2.392-4.59-3.843-5.255-6.67
		c-0.688-2.926-0.218-6.964-0.101-10.606c5.719-0.584,10.492,1.607,13.439,4.344c3.023,2.812,5.22,6.376,5.657,11.519
		c0.452,5.364-1.474,9.521-4.244,12.729c-3.003,3.48-7.663,6.153-14.145,5.761c-4.364-0.267-8.313-2.353-10.914-4.952
		c-2.619-2.62-4.744-6.585-5.05-10.812C2.376,15.064,5.189,10.237,8.605,7.282C9.063,6.886,9.434,6.26,10.122,6.169 M5.574,12.029
		c-1.354,2.443-2.383,5.458-2.119,9.296c0.548,8.051,7.134,14.843,15.456,15.356c5.237,0.328,9.455-1.62,12.427-4.343
		c2.943-2.692,5.382-6.831,5.354-12.327c-0.022-4.876-2.108-9.002-4.95-11.821c-2.667-2.646-7.819-5.199-13.135-4.647
		c0.074,1.285-0.114,2.313-0.1,3.537c2.189,0.067,4.648-0.136,6.67,0.1v7.781h7.881c-0.066,3.402,0.134,7.072-0.101,10.306
		c-1.414,0.069-3.098-0.135-4.346,0.101c1.074,0.855,3.542,0.299,3.841,1.718c0.31,1.467-0.948,2.589-2.323,2.729
		c-0.784,0.078-1.604-0.198-2.427-0.305c-0.923-0.119-1.692-0.09-2.525,0.101v3.436c-3.403-0.068-7.073,0.133-10.307-0.101v-7.682
		H7.092c0.067-3.401-0.135-7.069,0.099-10.304h3.132c0.124-2.527-0.165-5.483-0.606-7.78C7.832,8.458,6.604,10.175,5.574,12.029
		 M18.508,7.988c0.174,1.745-0.135,4.434,0.505,6.062c0.73,1.863,3.062,3.541,4.446,5.155c0.983,1.149,2.782,4.979,4.345,5.354
		c1.458,0.351,3.321-0.268,4.648,0v-8.992c-2.595-0.066-5.456,0.135-7.882-0.101c-0.068-2.56,0.134-5.387-0.1-7.782h-5.761
		C18.583,7.726,18.504,7.816,18.508,7.988 M7.799,15.566c-0.237,2.795-0.034,6.027-0.101,8.99c2.592,0.066,5.452-0.132,7.878,0.101
		v7.782h8.996v-2.729c-0.817-0.238-1.137-0.292-1.516-0.506c-2.33-1.316-4.104-5.472-7.981-5.86
		c-1.784-0.179-3.39,0.119-4.549-0.608c-0.843-0.526-1.377-1.843-1.412-2.624c-0.089-1.861,0.95-2.733,1.109-4.548H7.799V15.566z"/>
	<path fill="#039BB4" d="M40.588,40.295H0V-0.294h40.587V40.295z M0.876,39.416h38.833V0.585H0.876V39.416z"/>
	<rect x="208.622" y="33.552" fill="#85888B" width="5.484" height="0.963"/>
	<path fill="#039BB4" d="M448.754,35.344v-8.877V35.344z"/>
</g>
</svg>
