<?xml version="1.0" encoding="utf-8"?>
<!-- Generator: Adobe Illustrator 16.0.0, SVG Export Plug-In . SVG Version: 6.00 Build 0)  -->
<!DOCTYPE svg PUBLIC "-//W3C//DTD SVG 1.1//EN" "http://www.w3.org/Graphics/SVG/1.1/DTD/svg11.dtd">
<svg version="1.1" id="svg4722" xmlns:svg="http://www.w3.org/2000/svg"
	 xmlns="http://www.w3.org/2000/svg" xmlns:xlink="http://www.w3.org/1999/xlink" x="0px" y="0px" width="68.955px"
	 height="21.375px" viewBox="378.509 116.742 68.955 21.375" enable-background="new 378.509 116.742 68.955 21.375"
	 xml:space="preserve">
<g id="layer1" transform="translate(85.788367,-282.23124)">
	<path id="path66" fill="#BBBBBB" d="M315.103,399.369c-0.926,0-1.824,0.212-2.667,0.609c-1.204,0.571-2.296,1.521-3.188,2.784
		c-0.579,0.819-1.074,1.769-1.462,2.831c-0.732,2.004-0.724,3.631,0.024,4.702c0.424,0.605,1.307,1.33,3.1,1.332h0.007
		c3.267,0,5.705-2.142,7.25-6.366c0.409-1.116,0.947-3.201-0.038-4.609C317.534,399.802,316.518,399.37,315.103,399.369
		L315.103,399.369z M334.815,399.369c-0.926,0-1.825,0.212-2.668,0.609c-1.204,0.571-2.295,1.521-3.188,2.784
		c-0.579,0.819-1.074,1.769-1.462,2.831c-0.733,2.004-0.724,3.631,0.024,4.702c0.424,0.605,1.305,1.33,3.1,1.332h0.005
		c3.268,0,5.708-2.142,7.251-6.366c0.41-1.116,0.946-3.201-0.037-4.609C337.245,399.802,336.228,399.37,334.815,399.369z
		 M304.611,399.538c-1.074,0-2.119,0-3.055,0.476c-0.935,0.475-1.761,1.424-2.396,3.325c-0.138,0.408-0.211,0.761-0.22,1.066
		c-0.01,0.307,0.043,0.566,0.159,0.794c0.144,0.276,0.375,0.536,0.665,0.754c0.291,0.221,0.638,0.399,1.013,0.512
		c0.014,0.003,0.211,0.06,0.449,0.128c0.238,0.067,0.516,0.149,0.692,0.202c0.103,0.032,0.216,0.073,0.318,0.136
		c0.103,0.061,0.195,0.143,0.253,0.256c0.038,0.076,0.059,0.158,0.061,0.246c0.003,0.087-0.012,0.184-0.047,0.285
		c-0.087,0.258-0.219,0.424-0.472,0.526c-0.251,0.102-0.621,0.133-1.184,0.138h-7.016l-1.109,3.047h7.51c0.707,0,1.999,0,3.24-0.529
		c1.242-0.527,2.433-1.58,2.937-3.69c0.189-0.792,0.13-1.439-0.18-1.946c-0.311-0.506-0.875-0.876-1.695-1.11
		c0,0-0.184-0.054-0.4-0.116c-0.215-0.063-0.463-0.134-0.59-0.171c-0.21-0.059-0.372-0.181-0.467-0.336
		c-0.095-0.154-0.124-0.341-0.069-0.532c0.056-0.2,0.192-0.359,0.389-0.468c0.197-0.109,0.457-0.17,0.76-0.17h4.366
		c0.031-0.043,0.058-0.093,0.089-0.137c0.798-1.128,1.763-2.041,2.819-2.686H304.611z M324.234,399.538
		c-1.942,0-3.389,0.983-4.072,2.823l-3.3,9.068h3.616l1.696-4.661l3.194,0.002l0.91-2.497l-3.186-0.002l0.514-1.445
		c0.106-0.259,0.361-0.465,0.734-0.465c0.209,0,2.556,0,3.769,0.001c0.031-0.044,0.06-0.094,0.09-0.138
		c0.797-1.128,1.926-2.041,2.984-2.686H324.234L324.234,399.538z M341.008,399.545l-4.33,11.891h3.677l1.574-4.185
		c0.076,0.172,1.005,4.185,1.005,4.185h3.866c0,0-0.703-2.95-1.221-4.14c-0.132-0.306-0.271-0.649-0.456-0.937
		c1.092-0.406,2.675-1.276,3.33-3.042c0.401-1.085,0.379-1.962-0.067-2.606c-0.544-0.78-1.646-1.164-3.377-1.166H341.008
		L341.008,399.545z M348.55,399.546c0.233,0.184,0.434,0.394,0.601,0.633c0.428,0.617,0.593,1.35,0.495,2.19h2.188l-3.3,9.07h3.298
		l3.301-9.07h4.238l1.027-2.823H348.55z M343.43,402.001h0.606c1.108,0,1.523,0.325,1.146,1.338
		c-0.351,0.951-0.985,1.538-2.191,1.538h-0.005l-0.626-0.001L343.43,402.001L343.43,402.001z M314.235,402.06h0.001
		c1.129,0.001,1.388,0.656,0.396,3.369h0c-1.019,2.79-1.758,3.493-2.871,3.493h-0.003c-1.084-0.001-1.465-0.688-0.45-3.464
		C312.066,403.386,313.048,402.06,314.235,402.06L314.235,402.06z M333.946,402.06L333.946,402.06
		c1.131,0.001,1.39,0.656,0.398,3.369c-1.02,2.79-1.761,3.493-2.873,3.493h-0.002c-1.085-0.001-1.464-0.688-0.45-3.464
		C331.778,403.386,332.759,402.06,333.946,402.06L333.946,402.06z"/>
	<path id="path98" fill="#BBBBBB" d="M296.296,412.69c-0.231,0-0.404,0.042-0.521,0.123c-0.115,0.086-0.211,0.236-0.291,0.452
		c-0.076,0.208-0.087,0.352-0.034,0.432c0.052,0.084,0.194,0.124,0.429,0.124c0.234,0,0.409-0.041,0.523-0.127
		s0.211-0.234,0.288-0.448c0.077-0.21,0.089-0.354,0.037-0.435C296.678,412.73,296.533,412.69,296.296,412.69z M298.29,412.69
		c-0.234,0-0.409,0.042-0.522,0.123c-0.114,0.086-0.21,0.236-0.29,0.452c-0.074,0.208-0.087,0.352-0.036,0.432
		c0.051,0.084,0.193,0.124,0.427,0.124s0.409-0.041,0.525-0.127c0.116-0.086,0.212-0.234,0.291-0.448
		c0.077-0.21,0.088-0.354,0.036-0.435C298.667,412.73,298.524,412.69,298.29,412.69z M335.509,414.236
		c-0.271,0-0.54,0.034-0.808,0.104c-0.269,0.071-0.516,0.176-0.744,0.318c-0.23,0.142-0.436,0.318-0.62,0.533
		c-0.181,0.215-0.324,0.463-0.429,0.746c-0.089,0.246-0.129,0.457-0.121,0.634c0.009,0.176,0.048,0.33,0.118,0.459
		c0.069,0.13,0.162,0.241,0.278,0.333c0.115,0.092,0.237,0.176,0.371,0.247c0.131,0.074,0.259,0.144,0.384,0.209
		c0.126,0.065,0.234,0.136,0.323,0.211c0.091,0.074,0.155,0.16,0.191,0.254c0.04,0.097,0.033,0.212-0.015,0.346
		c-0.041,0.114-0.102,0.221-0.179,0.314c-0.077,0.095-0.167,0.175-0.27,0.237c-0.105,0.062-0.22,0.113-0.349,0.148
		c-0.128,0.035-0.267,0.053-0.413,0.053c-0.222,0-0.407-0.024-0.558-0.076c-0.15-0.05-0.277-0.106-0.376-0.166
		c-0.099-0.062-0.179-0.117-0.237-0.167c-0.06-0.05-0.111-0.075-0.154-0.075c-0.03,0-0.059,0.009-0.089,0.025
		c-0.028,0.017-0.057,0.044-0.086,0.085c-0.026,0.038-0.056,0.091-0.086,0.154c-0.027,0.064-0.062,0.144-0.095,0.236
		c-0.051,0.142-0.081,0.249-0.091,0.322c-0.013,0.074-0.003,0.132,0.022,0.172c0.023,0.039,0.073,0.086,0.143,0.136
		c0.071,0.053,0.165,0.103,0.281,0.149c0.118,0.047,0.257,0.087,0.418,0.121c0.164,0.034,0.348,0.049,0.552,0.049
		c0.301,0,0.6-0.039,0.892-0.117c0.293-0.08,0.567-0.197,0.821-0.354c0.256-0.157,0.481-0.352,0.685-0.587
		c0.2-0.235,0.356-0.506,0.47-0.816c0.087-0.238,0.125-0.443,0.115-0.618s-0.049-0.327-0.121-0.457
		c-0.072-0.128-0.166-0.239-0.284-0.333c-0.118-0.091-0.244-0.176-0.377-0.248c-0.129-0.073-0.259-0.142-0.388-0.207
		c-0.128-0.065-0.238-0.137-0.331-0.211c-0.095-0.073-0.159-0.159-0.197-0.255c-0.036-0.095-0.029-0.21,0.018-0.34
		c0.032-0.089,0.08-0.171,0.141-0.251c0.06-0.081,0.132-0.147,0.22-0.203c0.086-0.055,0.182-0.1,0.292-0.132
		c0.108-0.032,0.228-0.048,0.359-0.048c0.167,0,0.312,0.02,0.438,0.062c0.126,0.04,0.23,0.086,0.319,0.138
		c0.089,0.048,0.159,0.095,0.219,0.139c0.057,0.042,0.103,0.064,0.136,0.064c0.034,0,0.064-0.01,0.091-0.028
		c0.024-0.02,0.053-0.048,0.076-0.087c0.025-0.04,0.051-0.089,0.077-0.151c0.027-0.06,0.06-0.135,0.088-0.224
		c0.03-0.077,0.052-0.144,0.069-0.198c0.017-0.053,0.027-0.097,0.031-0.133c0.005-0.034,0.006-0.062,0.004-0.083
		c-0.004-0.022-0.015-0.049-0.033-0.079c-0.02-0.029-0.066-0.068-0.146-0.112c-0.078-0.045-0.17-0.088-0.281-0.124
		c-0.107-0.037-0.227-0.065-0.358-0.086C335.785,414.246,335.648,414.236,335.509,414.236L335.509,414.236z M354.455,414.239
		c-0.466,0-0.914,0.074-1.345,0.216c-0.431,0.144-0.829,0.348-1.193,0.618c-0.365,0.269-0.692,0.597-0.978,0.979
		c-0.286,0.387-0.517,0.82-0.693,1.304c-0.17,0.47-0.255,0.889-0.25,1.257c0,0.37,0.084,0.684,0.248,0.939
		c0.166,0.257,0.409,0.453,0.733,0.591c0.323,0.134,0.721,0.201,1.192,0.201c0.162,0,0.325-0.008,0.488-0.023
		c0.167-0.015,0.332-0.038,0.501-0.066c0.167-0.032,0.332-0.067,0.494-0.11c0.162-0.044,0.297-0.085,0.412-0.122
		c0.112-0.042,0.198-0.096,0.255-0.163c0.057-0.069,0.102-0.149,0.135-0.241l0.854-2.348c0.023-0.062,0.036-0.116,0.036-0.163
		c0.002-0.046-0.004-0.086-0.021-0.12c-0.017-0.033-0.041-0.059-0.073-0.076c-0.032-0.016-0.07-0.023-0.121-0.023h-1.993
		c-0.028,0-0.055,0.008-0.083,0.023c-0.026,0.018-0.054,0.044-0.083,0.078c-0.026,0.034-0.056,0.083-0.084,0.14
		c-0.028,0.058-0.059,0.129-0.09,0.213c-0.06,0.165-0.087,0.282-0.081,0.35c0.005,0.069,0.036,0.104,0.09,0.104h1.119l-0.499,1.368
		c-0.135,0.062-0.273,0.107-0.415,0.137c-0.142,0.03-0.28,0.046-0.413,0.046c-0.274,0-0.508-0.045-0.703-0.131
		c-0.195-0.089-0.341-0.22-0.438-0.394c-0.097-0.174-0.146-0.389-0.141-0.645c0.002-0.259,0.066-0.556,0.189-0.893
		c0.112-0.308,0.259-0.587,0.438-0.843c0.18-0.252,0.385-0.47,0.615-0.651c0.231-0.182,0.48-0.32,0.748-0.419
		c0.267-0.099,0.543-0.149,0.829-0.149c0.267,0,0.492,0.029,0.674,0.083c0.183,0.055,0.334,0.113,0.459,0.178
		c0.121,0.063,0.218,0.123,0.284,0.179c0.07,0.054,0.124,0.08,0.163,0.08c0.027,0,0.053-0.006,0.079-0.023
		c0.026-0.014,0.051-0.042,0.079-0.079c0.026-0.037,0.056-0.089,0.087-0.154c0.032-0.062,0.062-0.14,0.095-0.229
		c0.056-0.149,0.089-0.265,0.098-0.344c0.012-0.076,0.002-0.135-0.021-0.179c-0.028-0.042-0.082-0.093-0.162-0.151
		c-0.082-0.057-0.194-0.112-0.333-0.16c-0.138-0.052-0.306-0.094-0.504-0.128C354.937,414.257,354.711,414.239,354.455,414.239z
		 M317.159,414.314c-0.155,0-0.277,0.002-0.367,0.011c-0.09,0.007-0.159,0.028-0.21,0.062c-0.05,0.034-0.085,0.081-0.104,0.146
		c-0.02,0.06-0.035,0.146-0.048,0.257l-0.533,5.149c-0.009,0.074-0.007,0.132,0.004,0.177c0.012,0.043,0.043,0.076,0.096,0.101
		c0.052,0.021,0.13,0.038,0.232,0.045s0.241,0.011,0.417,0.011c0.168,0,0.304-0.004,0.408-0.011c0.104-0.007,0.192-0.023,0.26-0.049
		c0.067-0.022,0.123-0.057,0.166-0.102c0.043-0.044,0.086-0.103,0.126-0.172l2.256-3.742h0.008l-0.416,3.742
		c-0.012,0.074-0.012,0.132,0,0.177c0.011,0.043,0.043,0.076,0.094,0.101c0.053,0.021,0.131,0.038,0.233,0.045
		c0.103,0.007,0.24,0.011,0.413,0.011c0.155,0,0.285-0.004,0.388-0.011c0.102-0.007,0.191-0.023,0.263-0.045
		c0.071-0.024,0.132-0.058,0.18-0.101c0.049-0.045,0.095-0.103,0.14-0.177l3.226-5.136c0.067-0.112,0.116-0.202,0.145-0.268
		c0.027-0.066,0.031-0.114,0.01-0.148c-0.021-0.033-0.066-0.055-0.14-0.062c-0.07-0.009-0.175-0.011-0.308-0.011
		c-0.143,0-0.257,0.002-0.337,0.011c-0.082,0.007-0.148,0.021-0.198,0.042c-0.049,0.02-0.089,0.046-0.116,0.081
		c-0.028,0.034-0.056,0.077-0.082,0.126l-2.677,4.506h-0.009l0.521-4.489c0.01-0.059,0.011-0.109,0.004-0.145
		c-0.008-0.036-0.032-0.064-0.073-0.085c-0.04-0.02-0.101-0.033-0.186-0.039c-0.086-0.006-0.2-0.008-0.347-0.008
		c-0.136,0-0.249,0.002-0.333,0.011c-0.084,0.007-0.154,0.021-0.208,0.042c-0.054,0.02-0.099,0.047-0.131,0.082
		c-0.033,0.038-0.066,0.085-0.1,0.142l-2.71,4.489h-0.005l0.61-4.52c0.012-0.059,0.016-0.104,0.012-0.135
		c-0.003-0.032-0.023-0.057-0.06-0.072c-0.038-0.018-0.096-0.028-0.178-0.032C317.414,414.316,317.302,414.314,317.159,414.314
		L317.159,414.314z M331.396,414.314c-0.117,0-0.213,0.003-0.294,0.013c-0.077,0.01-0.144,0.021-0.196,0.035
		c-0.053,0.018-0.093,0.038-0.122,0.061c-0.028,0.024-0.049,0.053-0.061,0.082l-2.028,5.575c-0.012,0.031-0.012,0.058,0,0.083
		c0.01,0.024,0.035,0.043,0.075,0.059c0.041,0.016,0.099,0.027,0.172,0.037c0.074,0.009,0.17,0.013,0.285,0.013
		c0.118,0,0.217-0.004,0.297-0.013c0.079-0.01,0.145-0.021,0.196-0.037c0.051-0.016,0.092-0.034,0.119-0.059
		c0.028-0.025,0.048-0.052,0.06-0.083l2.03-5.575c0.01-0.029,0.01-0.058,0-0.082c-0.011-0.022-0.038-0.043-0.078-0.061
		c-0.039-0.014-0.096-0.025-0.169-0.035C331.61,414.317,331.514,414.314,331.396,414.314L331.396,414.314z M294.898,414.314
		c-0.119,0-0.218,0.003-0.297,0.013c-0.08,0.01-0.146,0.022-0.198,0.037c-0.052,0.016-0.092,0.036-0.12,0.059
		c-0.027,0.024-0.045,0.053-0.058,0.082l-1.306,3.592c-0.138,0.378-0.204,0.705-0.198,0.987c0.006,0.281,0.075,0.515,0.211,0.703
		c0.135,0.191,0.333,0.329,0.596,0.423c0.26,0.093,0.576,0.139,0.948,0.139c0.396,0,0.764-0.051,1.105-0.154
		s0.652-0.254,0.931-0.452c0.279-0.194,0.523-0.438,0.734-0.726c0.211-0.285,0.382-0.609,0.514-0.971l1.289-3.541
		c0.012-0.029,0.012-0.058,0.002-0.082c-0.009-0.022-0.033-0.043-0.073-0.059c-0.04-0.015-0.096-0.027-0.167-0.037
		c-0.071-0.01-0.165-0.013-0.281-0.013s-0.213,0.003-0.294,0.013s-0.146,0.022-0.198,0.037c-0.051,0.016-0.09,0.036-0.118,0.059
		c-0.027,0.024-0.045,0.053-0.057,0.082l-1.294,3.554c-0.074,0.207-0.171,0.392-0.286,0.555c-0.116,0.164-0.245,0.301-0.39,0.41
		c-0.144,0.11-0.301,0.195-0.471,0.255c-0.169,0.056-0.348,0.087-0.537,0.087c-0.187,0-0.344-0.028-0.474-0.086
		c-0.129-0.058-0.228-0.14-0.295-0.252c-0.067-0.113-0.098-0.256-0.093-0.427c0.004-0.173,0.05-0.376,0.135-0.609l1.269-3.486
		c0.011-0.029,0.011-0.058,0-0.082c-0.011-0.022-0.036-0.043-0.076-0.059c-0.041-0.015-0.097-0.027-0.169-0.037
		C295.107,414.317,295.013,414.314,294.898,414.314L294.898,414.314z M339.16,414.314c-0.118,0-0.218,0.003-0.298,0.013
		c-0.079,0.01-0.146,0.021-0.197,0.035c-0.054,0.018-0.094,0.038-0.12,0.061c-0.028,0.024-0.046,0.053-0.058,0.082l-1.305,3.591
		c-0.141,0.377-0.206,0.706-0.198,0.988c0.004,0.281,0.075,0.515,0.212,0.705c0.134,0.189,0.331,0.327,0.595,0.421
		c0.259,0.093,0.575,0.139,0.946,0.139c0.395,0,0.765-0.051,1.105-0.153c0.343-0.104,0.651-0.255,0.932-0.453
		c0.279-0.198,0.523-0.438,0.733-0.726c0.211-0.285,0.379-0.609,0.515-0.971l1.287-3.541c0.012-0.029,0.012-0.058,0.001-0.082
		c-0.008-0.022-0.031-0.043-0.071-0.061c-0.041-0.014-0.095-0.025-0.167-0.035c-0.071-0.01-0.166-0.013-0.282-0.013
		c-0.115,0-0.213,0.003-0.294,0.013s-0.146,0.021-0.198,0.035c-0.051,0.018-0.09,0.038-0.115,0.061
		c-0.028,0.024-0.048,0.053-0.06,0.082l-1.293,3.554c-0.076,0.207-0.172,0.392-0.285,0.555c-0.117,0.164-0.245,0.299-0.389,0.41
		c-0.145,0.111-0.301,0.195-0.472,0.252c-0.17,0.059-0.353,0.09-0.538,0.09s-0.343-0.028-0.474-0.086
		c-0.13-0.058-0.228-0.14-0.296-0.252c-0.067-0.113-0.099-0.256-0.094-0.427c0.005-0.173,0.05-0.375,0.136-0.609l1.268-3.486
		c0.013-0.029,0.013-0.058,0-0.082c-0.009-0.022-0.035-0.043-0.074-0.061c-0.042-0.014-0.098-0.025-0.17-0.035
		C339.369,414.317,339.275,414.314,339.16,414.314L339.16,414.314z M349.419,414.322c-0.11,0-0.201,0.005-0.274,0.013
		c-0.072,0.007-0.133,0.02-0.184,0.038c-0.048,0.019-0.087,0.04-0.113,0.062c-0.027,0.025-0.047,0.053-0.058,0.084l-1.008,2.769
		c-0.076,0.21-0.154,0.432-0.233,0.66c-0.079,0.233-0.154,0.454-0.224,0.667h-0.004c-0.011-0.121-0.021-0.244-0.037-0.365
		c-0.013-0.121-0.027-0.245-0.041-0.37c-0.015-0.127-0.032-0.253-0.052-0.381c-0.02-0.125-0.04-0.253-0.059-0.385l-0.363-2.158
		c-0.016-0.119-0.035-0.217-0.061-0.298c-0.027-0.08-0.062-0.144-0.106-0.189c-0.046-0.045-0.105-0.079-0.177-0.099
		c-0.072-0.021-0.165-0.028-0.279-0.028h-0.646c-0.123,0-0.236,0.034-0.345,0.106c-0.112,0.072-0.192,0.179-0.244,0.321
		l-1.932,5.308c-0.01,0.028-0.013,0.058-0.008,0.081c0.008,0.024,0.028,0.044,0.061,0.06c0.034,0.019,0.083,0.031,0.15,0.041
		c0.066,0.009,0.152,0.013,0.26,0.013c0.108,0,0.198-0.004,0.275-0.013c0.072-0.01,0.132-0.022,0.18-0.041
		c0.046-0.016,0.083-0.035,0.108-0.06c0.024-0.023,0.043-0.053,0.054-0.081l1.126-3.09c0.084-0.231,0.164-0.455,0.234-0.673
		c0.073-0.218,0.146-0.436,0.212-0.654h0.009c0.004,0.179,0.017,0.365,0.035,0.553c0.021,0.19,0.042,0.367,0.066,0.532l0.464,2.761
		c0.021,0.152,0.044,0.275,0.07,0.372c0.027,0.095,0.063,0.172,0.107,0.227c0.045,0.058,0.102,0.097,0.172,0.117
		c0.068,0.021,0.157,0.032,0.264,0.032h0.511c0.059,0,0.118-0.009,0.183-0.025c0.061-0.017,0.119-0.044,0.174-0.08
		c0.054-0.036,0.103-0.082,0.148-0.136c0.044-0.055,0.078-0.118,0.103-0.188l1.933-5.306c0.012-0.031,0.014-0.059,0.007-0.084
		c-0.007-0.022-0.025-0.044-0.056-0.062c-0.032-0.019-0.083-0.031-0.149-0.038C349.606,414.327,349.521,414.322,349.419,414.322
		L349.419,414.322z M306.823,414.342c-0.101,0-0.196,0.028-0.287,0.088c-0.089,0.06-0.159,0.156-0.208,0.29l-1.873,5.146
		c-0.049,0.136-0.049,0.231-0.002,0.291c0.047,0.06,0.121,0.088,0.221,0.088h2.965c0.028,0,0.056-0.008,0.086-0.026
		c0.028-0.016,0.057-0.041,0.085-0.078c0.029-0.037,0.057-0.083,0.087-0.144c0.029-0.059,0.059-0.134,0.091-0.222
		c0.032-0.087,0.055-0.16,0.07-0.222c0.014-0.058,0.02-0.106,0.018-0.144c-0.001-0.037-0.012-0.063-0.029-0.081
		c-0.016-0.014-0.038-0.022-0.065-0.022h-2.126l0.606-1.667h1.784c0.027,0,0.055-0.007,0.084-0.022
		c0.027-0.014,0.056-0.04,0.083-0.075c0.028-0.035,0.058-0.079,0.085-0.141c0.029-0.056,0.06-0.129,0.092-0.218
		c0.031-0.084,0.054-0.158,0.068-0.216s0.019-0.105,0.017-0.142c-0.002-0.034-0.011-0.062-0.029-0.078
		c-0.017-0.016-0.038-0.024-0.066-0.024h-1.783l0.524-1.443h2.108c0.028,0,0.056-0.006,0.083-0.024
		c0.027-0.016,0.055-0.043,0.084-0.079s0.057-0.085,0.086-0.145c0.029-0.058,0.06-0.13,0.09-0.218
		c0.034-0.089,0.057-0.165,0.07-0.225c0.014-0.058,0.021-0.107,0.02-0.146c-0.001-0.039-0.01-0.063-0.026-0.079
		c-0.016-0.015-0.037-0.022-0.064-0.022H306.823L306.823,414.342z M311.774,414.342c-0.1,0-0.195,0.028-0.286,0.088
		c-0.089,0.06-0.159,0.156-0.208,0.29l-1.951,5.36c-0.011,0.031-0.012,0.058-0.003,0.082c0.01,0.025,0.034,0.044,0.075,0.06
		c0.04,0.016,0.097,0.027,0.171,0.037c0.073,0.009,0.168,0.013,0.284,0.013c0.118,0,0.218-0.004,0.297-0.013
		c0.079-0.01,0.145-0.021,0.195-0.037c0.051-0.016,0.091-0.034,0.12-0.06c0.027-0.024,0.048-0.051,0.059-0.082l0.819-2.25h0.375
		c0.126,0,0.232,0.02,0.315,0.062c0.083,0.037,0.147,0.097,0.194,0.175c0.046,0.077,0.078,0.173,0.098,0.29
		c0.019,0.115,0.032,0.247,0.043,0.396l0.049,1.317c-0.002,0.038,0.002,0.067,0.01,0.095c0.01,0.025,0.033,0.047,0.072,0.063
		c0.038,0.017,0.093,0.027,0.167,0.033c0.075,0.006,0.175,0.01,0.303,0.01c0.152,0,0.273-0.002,0.363-0.01
		c0.091-0.006,0.161-0.017,0.211-0.03c0.053-0.016,0.088-0.035,0.108-0.059c0.021-0.021,0.038-0.05,0.049-0.083
		c0.011-0.03,0.02-0.073,0.022-0.128c0.004-0.051,0.005-0.135,0.002-0.252l-0.074-1.163c-0.007-0.14-0.021-0.265-0.042-0.376
		c-0.019-0.11-0.049-0.211-0.086-0.297c-0.037-0.087-0.082-0.16-0.137-0.221c-0.056-0.062-0.12-0.112-0.193-0.155
		c0.205-0.058,0.395-0.134,0.571-0.228c0.178-0.096,0.338-0.206,0.482-0.335c0.144-0.126,0.27-0.271,0.38-0.435
		c0.109-0.161,0.2-0.343,0.272-0.54c0.085-0.233,0.125-0.443,0.122-0.623c-0.004-0.182-0.049-0.338-0.133-0.47
		c-0.084-0.132-0.207-0.239-0.368-0.321c-0.159-0.081-0.352-0.141-0.578-0.174c-0.079-0.009-0.167-0.017-0.265-0.023
		c-0.098-0.006-0.225-0.008-0.379-0.008H311.774L311.774,414.342z M326.188,414.342c-0.1,0-0.196,0.028-0.285,0.088
		c-0.091,0.06-0.16,0.156-0.209,0.29l-1.873,5.146c-0.049,0.136-0.05,0.231-0.004,0.291c0.048,0.06,0.122,0.088,0.223,0.088h2.966
		c0.027,0,0.056-0.008,0.083-0.026c0.03-0.016,0.058-0.041,0.086-0.078c0.03-0.037,0.059-0.083,0.088-0.144
		c0.028-0.059,0.06-0.134,0.091-0.222l0,0c0.033-0.087,0.057-0.16,0.07-0.222c0.014-0.058,0.019-0.106,0.017-0.144
		c-0.001-0.037-0.011-0.063-0.027-0.081c-0.017-0.014-0.04-0.022-0.066-0.022h-2.125l0.605-1.667h1.783
		c0.028,0,0.055-0.007,0.084-0.022c0.028-0.014,0.057-0.04,0.085-0.075s0.056-0.079,0.085-0.141c0.029-0.056,0.059-0.129,0.09-0.218
		c0.032-0.084,0.055-0.158,0.068-0.216c0.013-0.058,0.02-0.105,0.017-0.142c0-0.034-0.011-0.062-0.027-0.078
		c-0.017-0.016-0.039-0.024-0.066-0.024h-1.784l0.525-1.443h2.105c0.028,0,0.056-0.006,0.084-0.024
		c0.026-0.016,0.055-0.043,0.083-0.079c0.029-0.036,0.06-0.085,0.087-0.145c0.029-0.058,0.06-0.13,0.09-0.218
		c0.034-0.089,0.058-0.165,0.071-0.225c0.014-0.058,0.021-0.107,0.02-0.146c-0.002-0.039-0.012-0.063-0.026-0.079
		c-0.016-0.015-0.038-0.022-0.065-0.022H326.188L326.188,414.342z M301.162,414.342c-0.1,0-0.197,0.028-0.285,0.088
		c-0.091,0.06-0.16,0.156-0.209,0.29l-1.873,5.146c-0.048,0.135-0.05,0.231-0.002,0.291c0.046,0.06,0.12,0.088,0.22,0.088h1.57
		c0.237,0,0.458-0.015,0.662-0.043c0.204-0.029,0.401-0.075,0.594-0.135c0.192-0.061,0.376-0.139,0.553-0.232
		c0.175-0.095,0.337-0.206,0.487-0.337c0.15-0.131,0.284-0.282,0.404-0.453c0.121-0.169,0.219-0.358,0.295-0.569
		c0.073-0.201,0.108-0.382,0.107-0.544c-0.003-0.16-0.035-0.301-0.096-0.421c-0.062-0.12-0.149-0.218-0.263-0.295
		c-0.114-0.075-0.249-0.129-0.404-0.16c0.148-0.047,0.288-0.111,0.419-0.191c0.13-0.078,0.249-0.17,0.357-0.272
		c0.108-0.104,0.202-0.22,0.285-0.345c0.083-0.126,0.15-0.261,0.203-0.405c0.093-0.255,0.127-0.477,0.105-0.665
		s-0.097-0.345-0.224-0.468c-0.127-0.122-0.306-0.216-0.535-0.274c-0.229-0.062-0.524-0.092-0.886-0.092H301.162z M301.656,415.24
		h0.607c0.185,0,0.327,0.016,0.426,0.049c0.1,0.034,0.173,0.083,0.224,0.145c0.05,0.062,0.077,0.142,0.078,0.236
		c0.002,0.093-0.018,0.199-0.061,0.318c-0.038,0.105-0.092,0.207-0.161,0.303c-0.069,0.097-0.15,0.181-0.245,0.252
		c-0.094,0.07-0.2,0.127-0.319,0.168c-0.119,0.041-0.263,0.062-0.437,0.062h-0.67L301.656,415.24z M312.285,415.256h0.538
		c0.137,0,0.242,0.007,0.317,0.017c0.074,0.007,0.139,0.021,0.193,0.035c0.182,0.056,0.292,0.15,0.331,0.283
		c0.041,0.134,0.025,0.299-0.046,0.493c-0.047,0.128-0.11,0.244-0.19,0.347c-0.081,0.104-0.178,0.193-0.289,0.268
		c-0.112,0.074-0.239,0.131-0.382,0.172c-0.143,0.041-0.299,0.062-0.47,0.062h-0.611L312.285,415.256z M300.779,417.648h0.711
		c0.219,0,0.39,0.021,0.513,0.06c0.122,0.041,0.214,0.096,0.276,0.167c0.061,0.075,0.095,0.165,0.101,0.273
		c0.007,0.108-0.015,0.229-0.064,0.366c-0.048,0.132-0.114,0.249-0.197,0.35c-0.086,0.103-0.182,0.188-0.291,0.256
		c-0.108,0.068-0.227,0.12-0.353,0.154c-0.127,0.037-0.273,0.053-0.44,0.053h-0.867L300.779,417.648z"/>
</g>
</svg>
